<svg xmlns="http://www.w3.org/2000/svg" xmlns:xlink="http://www.w3.org/1999/xlink" width="1080" zoomAndPan="magnify" viewBox="0 0 810 809.999993" height="1080" preserveAspectRatio="xMidYMid meet" version="1.0"><defs><clipPath id="8455f329d3"><path d="M 86.105469 351 L 254 351 L 254 526 L 86.105469 526 Z M 86.105469 351 " clip-rule="nonzero"/></clipPath><clipPath id="846d37566e"><path d="M 615 353 L 723.605469 353 L 723.605469 524 L 615 524 Z M 615 353 " clip-rule="nonzero"/></clipPath></defs><rect x="-81" width="972" fill="#ffffff" y="-80.999999" height="971.999992" fill-opacity="1"/><rect x="-81" width="972" fill="#ffffff" y="-80.999999" height="971.999992" fill-opacity="1"/><g clip-path="url(#8455f329d3)"><path fill="#000000" d="M 161.363281 524.714844 C 138.085938 523.003906 115.738281 508.578125 101.242188 490.585938 L 90.886719 469.59375 L 87.53125 455.8125 L 86.105469 438.175781 C 86.820312 431.394531 88.675781 413.972656 90.960938 407.757812 C 97.386719 390.050781 109.953125 374.914062 125.449219 364.347656 L 143.296875 355.921875 L 166.71875 351.351562 C 172.789062 351.28125 185.210938 351.992188 191.136719 352.566406 L 214.273438 360.277344 L 230.695312 370.628906 L 237.476562 377.628906 C 239.40625 381.695312 243.761719 386.125 245.617188 390.195312 C 249.472656 395.191406 250.972656 402.832031 252.828125 408.757812 L 251.117188 413.613281 L 246.972656 415.542969 L 239.761719 416.257812 C 233.265625 415.46875 225.195312 415.328125 218.699219 416.042969 C 203.632812 409.328125 203.347656 394.40625 183.710938 391.695312 L 173.359375 391.195312 L 157.222656 393.335938 L 150.722656 396.976562 L 144.941406 401.546875 L 139.15625 408.332031 C 137.371094 411.042969 134.371094 418.539062 133.085938 421.609375 C 130.160156 434.964844 130.445312 451.386719 136.800781 463.667969 L 142.085938 472.09375 L 149.082031 478.375 L 157.507812 482.730469 L 166.21875 485.875 C 170.574219 486.875 181.5 486.230469 185.996094 485.875 C 188.351562 484.515625 195.566406 480.589844 198.0625 479.875 C 202.347656 476.375 207.703125 470.808594 209.917969 465.667969 L 213.773438 461.8125 L 219.339844 458.882812 C 227.480469 459.097656 239.046875 459.667969 247.402344 458.597656 L 252.257812 461.738281 L 253.6875 466.09375 L 247.402344 484.445312 L 242.332031 493.15625 C 234.621094 504.152344 221.914062 515.433594 208.84375 519.21875 L 204.488281 521.644531 L 190.28125 524.574219 L 173.429688 525.789062 C 173.429688 525.789062 161.363281 524.714844 161.363281 524.714844 Z M 161.363281 524.714844 " fill-opacity="1" fill-rule="nonzero"/></g><path fill="#000000" d="M 346.351562 525.929688 L 331.859375 525.214844 L 311.367188 519.21875 C 308.152344 518.289062 293.585938 510.222656 290.371094 508.578125 C 288.585938 506.152344 282.734375 500.582031 280.449219 498.441406 C 278.234375 495.296875 268.023438 481.945312 266.738281 478.660156 C 257.8125 459.8125 257.597656 431.964844 261.882812 411.828125 C 267.453125 388.125 286.015625 370.414062 306.796875 359.207031 L 315.933594 356.777344 C 327.789062 350.707031 345.28125 351.566406 358.207031 351.707031 C 391.191406 360.492188 412.328125 369.488281 427.679688 402.402344 C 433.675781 420.039062 435.605469 442.390625 431.75 460.738281 L 430.320312 464.59375 C 429.75 473.804688 420.253906 487.585938 415.328125 495.011719 L 398.476562 511.148438 C 392.335938 513.933594 374.199219 522.359375 367.773438 523.714844 C 367.773438 523.714844 346.351562 525.929688 346.351562 525.929688 Z M 339.640625 483.445312 L 353.636719 482.945312 C 355.777344 482.160156 360.277344 481.375 362.5625 481.230469 C 364.488281 480.019531 368.628906 478.019531 370.773438 477.164062 C 380.339844 470.734375 379.769531 468.164062 385.910156 459.738281 C 387.335938 454.457031 388.980469 443.246094 389.480469 437.75 L 388.480469 427.394531 C 387.480469 425.179688 385.910156 420.539062 385.339844 418.183594 C 384.554688 415.113281 379.625 408.257812 377.839844 405.617188 C 360.488281 390.410156 331.714844 389.195312 315.007812 406.257812 L 311.863281 410.117188 L 309.722656 414.183594 C 301.511719 423.109375 303.441406 438.960938 304.652344 450.171875 L 309.222656 463.667969 C 310.867188 465.167969 313.578125 468.523438 314.792969 470.378906 L 322.289062 476.875 L 330.5 481.230469 L 334.855469 481.730469 C 334.855469 481.730469 339.640625 483.445312 339.640625 483.445312 Z M 339.640625 483.445312 " fill-opacity="1" fill-rule="nonzero"/><path fill="#000000" d="M 516.691406 524.714844 C 493.339844 523.003906 471.136719 508.507812 456.570312 490.585938 L 446.214844 469.59375 L 442.859375 455.8125 L 441.433594 438.175781 C 442.144531 431.464844 444.074219 413.972656 446.214844 407.757812 C 452.640625 390.050781 465.207031 374.914062 480.703125 364.347656 L 498.554688 355.921875 L 521.972656 351.351562 C 528.042969 351.28125 540.46875 351.992188 546.394531 352.566406 L 569.527344 360.277344 L 585.949219 370.628906 L 592.734375 377.628906 C 594.660156 381.695312 599.015625 386.125 600.875 390.195312 C 604.730469 395.191406 606.230469 402.832031 608.085938 408.757812 L 606.371094 413.613281 L 602.230469 415.542969 L 595.019531 416.257812 C 588.519531 415.46875 580.453125 415.328125 573.953125 416.042969 C 558.890625 409.328125 558.601562 394.40625 538.96875 391.695312 L 528.613281 391.195312 L 512.476562 393.335938 L 506.050781 396.835938 L 500.269531 401.40625 L 494.484375 408.1875 C 492.699219 410.902344 489.699219 418.398438 488.414062 421.46875 C 485.488281 434.890625 485.703125 451.386719 492.128906 463.667969 L 497.410156 472.09375 L 504.410156 478.375 L 512.835938 482.730469 L 521.546875 485.875 C 525.902344 486.875 536.824219 486.230469 541.324219 485.875 C 543.679688 484.515625 550.890625 480.589844 553.390625 479.875 C 557.675781 476.375 563.03125 470.808594 565.242188 465.667969 L 569.101562 461.8125 L 574.667969 458.882812 C 582.808594 459.097656 594.375 459.667969 602.730469 458.597656 L 607.585938 461.738281 L 609.015625 466.09375 L 602.730469 484.445312 L 597.660156 493.15625 C 589.949219 504.152344 577.238281 515.433594 564.171875 519.21875 L 559.816406 521.644531 L 545.609375 524.574219 L 528.757812 525.789062 C 528.757812 525.789062 516.691406 524.714844 516.691406 524.714844 Z M 516.691406 524.714844 " fill-opacity="1" fill-rule="nonzero"/><g clip-path="url(#846d37566e)"><path fill="#000000" d="M 681.6875 523.503906 L 676.832031 523.003906 L 671.976562 523.503906 L 666.40625 523.21875 L 661.835938 522.289062 L 651.914062 523.003906 C 649.554688 522.71875 644.628906 522.929688 642.273438 523.289062 L 624.921875 523.074219 L 617.710938 519.933594 C 614.425781 513.21875 615.570312 499.011719 615.996094 491.515625 C 615.496094 471.878906 615.925781 438.460938 615.570312 418.898438 L 616.066406 414.328125 C 614.425781 407.902344 616.78125 386.625 615.140625 380.339844 L 615.855469 370.414062 L 615.355469 361.203125 L 617.996094 356.136719 C 622.707031 354.277344 622.851562 353.992188 627.921875 354.421875 L 632.777344 353.921875 L 637.132812 354.421875 L 641.703125 353.421875 C 661.621094 354.707031 684.828125 353.777344 704.964844 353.636719 L 709.320312 354.636719 L 714.390625 354.636719 L 719.246094 356.5625 C 723.671875 363.988281 720.886719 377.199219 721.886719 385.339844 L 719.457031 389.695312 C 714.960938 392.265625 715.246094 392.835938 709.820312 392.835938 C 707.035156 392.90625 671.976562 391.621094 670.621094 393.191406 L 666.050781 392.980469 L 660.765625 394.90625 L 658.625 399.476562 L 658.625 406.972656 L 660.550781 414.472656 L 665.621094 416.613281 C 679.046875 415.96875 695.46875 416.683594 709.035156 416.328125 L 714.601562 419.46875 L 717.03125 426.253906 L 716.316406 447.957031 L 714.601562 452.8125 C 709.535156 455.027344 709.535156 454.8125 704.179688 454.527344 C 691.898438 455.671875 677.617188 454.597656 665.335938 454.8125 L 660.980469 457.457031 L 658.839844 462.523438 L 658.839844 477.734375 L 660.765625 482.089844 L 665.835938 484.515625 L 671.121094 484.015625 L 675.6875 484.730469 C 678.257812 484.445312 683.328125 484.589844 685.828125 485.015625 C 692.683594 483.804688 703.75 483.660156 710.605469 484.945312 C 716.460938 484.300781 715.816406 484.160156 721.242188 486.585938 L 723.886719 491.441406 L 723.886719 515.792969 L 721.242188 520.859375 L 716.175781 523.003906 Z M 681.6875 523.503906 " fill-opacity="1" fill-rule="nonzero"/></g><path fill="#000000" d="M 350.921875 338.398438 C 348.78125 337.542969 341.78125 338.183594 339.496094 338.398438 L 333.5 335.972656 C 331.644531 333.757812 323.433594 323.046875 320.933594 321.832031 L 319.148438 318.835938 L 313.722656 314.335938 L 309.507812 308.050781 L 306.511719 306.269531 L 305.011719 300.269531 L 308.007812 297.269531 L 311.292969 295.773438 C 313.148438 297.058594 344.425781 284.632812 346.710938 284.0625 L 351.492188 286.132812 C 356.492188 296.558594 368.34375 323.761719 373.414062 335.398438 L 368.914062 337.828125 L 365.917969 337.828125 L 361.988281 338.753906 L 355.707031 337.828125 Z M 350.921875 338.398438 " fill-opacity="1" fill-rule="nonzero"/></svg>