<svg xmlns="http://www.w3.org/2000/svg" xmlns:xlink="http://www.w3.org/1999/xlink" width="1080" zoomAndPan="magnify" viewBox="0 0 810 809.999993" height="1080" preserveAspectRatio="xMidYMid meet" version="1.0"><defs><clipPath id="4dcde79212"><path d="M 303 282.003906 L 373 282.003906 L 373 338 L 303 338 Z M 303 282.003906 " clip-rule="nonzero"/></clipPath></defs><rect x="-81" width="972" fill="#ffffff" y="-80.999999" height="971.999992" fill-opacity="1"/><rect x="-81" width="972" fill="#000000" y="-80.999999" height="971.999992" fill-opacity="1"/><path fill="#ffffff" d="M 157.464844 526.636719 C 133.8125 524.894531 111.105469 510.242188 96.378906 491.957031 L 85.859375 470.628906 L 82.449219 456.628906 L 81 438.710938 C 81.726562 431.816406 83.613281 414.117188 85.933594 407.804688 C 92.460938 389.8125 105.230469 374.433594 120.972656 363.695312 L 139.109375 355.136719 L 162.90625 350.492188 C 169.070312 350.421875 181.695312 351.144531 187.714844 351.726562 L 211.222656 359.5625 L 227.90625 370.082031 L 234.796875 377.191406 C 236.757812 381.324219 241.183594 385.824219 243.070312 389.957031 C 246.988281 395.035156 248.511719 402.800781 250.394531 408.820312 L 248.65625 413.753906 L 244.449219 415.710938 L 237.121094 416.4375 C 230.519531 415.640625 222.320312 415.496094 215.71875 416.21875 C 200.410156 409.402344 200.121094 394.238281 180.171875 391.480469 L 169.652344 390.972656 L 153.257812 393.152344 L 146.65625 396.851562 L 140.777344 401.492188 L 134.902344 408.386719 C 133.089844 411.140625 130.042969 418.757812 128.734375 421.878906 C 125.761719 435.445312 126.050781 452.132812 132.507812 464.609375 L 137.875 473.167969 L 144.984375 479.554688 L 153.546875 483.980469 L 162.398438 487.171875 C 166.824219 488.1875 177.921875 487.535156 182.492188 487.171875 C 184.886719 485.792969 192.214844 481.800781 194.753906 481.078125 C 199.105469 477.523438 204.546875 471.863281 206.796875 466.640625 L 210.714844 462.722656 L 216.371094 459.75 C 224.640625 459.964844 236.394531 460.546875 244.882812 459.457031 L 249.816406 462.648438 L 251.265625 467.074219 L 244.882812 485.71875 L 239.730469 494.570312 C 231.898438 505.742188 218.984375 517.207031 205.707031 521.050781 L 201.28125 523.515625 L 186.84375 526.492188 L 169.722656 527.722656 C 169.722656 527.722656 157.464844 526.636719 157.464844 526.636719 Z M 157.464844 526.636719 " fill-opacity="1" fill-rule="nonzero"/><path fill="#ffffff" d="M 345.417969 527.871094 L 330.691406 527.144531 L 309.871094 521.050781 C 306.605469 520.105469 291.804688 511.910156 288.542969 510.242188 C 286.726562 507.773438 280.777344 502.117188 278.457031 499.9375 C 276.207031 496.746094 265.835938 483.179688 264.527344 479.84375 C 255.460938 460.691406 255.242188 432.398438 259.59375 411.941406 C 265.253906 387.855469 284.117188 369.863281 305.226562 358.472656 L 314.511719 356.007812 C 326.554688 349.839844 344.328125 350.710938 357.460938 350.855469 C 390.976562 359.777344 412.449219 368.921875 428.046875 402.363281 C 434.140625 420.28125 436.101562 442.988281 432.183594 461.632812 L 430.730469 465.550781 C 430.152344 474.910156 420.503906 488.910156 415.496094 496.457031 L 398.375 512.851562 C 392.136719 515.679688 373.710938 524.242188 367.179688 525.621094 C 367.179688 525.621094 345.417969 527.871094 345.417969 527.871094 Z M 338.597656 484.703125 L 352.816406 484.195312 C 354.992188 483.398438 359.5625 482.601562 361.886719 482.457031 C 363.84375 481.222656 368.050781 479.191406 370.226562 478.320312 C 379.949219 471.789062 379.371094 469.179688 385.609375 460.617188 C 387.058594 455.25 388.726562 443.859375 389.234375 438.273438 L 388.21875 427.753906 C 387.203125 425.507812 385.609375 420.789062 385.027344 418.398438 C 384.230469 415.277344 379.222656 408.3125 377.410156 405.628906 C 359.78125 390.175781 330.546875 388.941406 313.570312 406.28125 L 310.378906 410.199219 L 308.203125 414.335938 C 299.859375 423.402344 301.816406 439.507812 303.050781 450.898438 L 307.691406 464.609375 C 309.363281 466.132812 312.117188 469.542969 313.351562 471.429688 L 320.96875 478.03125 L 329.3125 482.457031 L 333.738281 482.964844 C 333.738281 482.964844 338.597656 484.703125 338.597656 484.703125 Z M 338.597656 484.703125 " fill-opacity="1" fill-rule="nonzero"/><path fill="#ffffff" d="M 518.484375 526.636719 C 494.761719 524.894531 472.199219 510.167969 457.398438 491.957031 L 446.882812 470.628906 L 443.472656 456.628906 L 442.019531 438.710938 C 442.746094 431.890625 444.703125 414.117188 446.882812 407.804688 C 453.410156 389.8125 466.179688 374.433594 481.921875 363.695312 L 500.058594 355.136719 L 523.851562 350.492188 C 530.019531 350.421875 542.640625 351.144531 548.664062 351.726562 L 572.167969 359.5625 L 588.855469 370.082031 L 595.746094 377.191406 C 597.707031 381.324219 602.128906 385.824219 604.015625 389.957031 C 607.933594 395.035156 609.457031 402.800781 611.34375 408.820312 L 609.601562 413.753906 L 605.394531 415.710938 L 598.066406 416.4375 C 591.464844 415.640625 583.269531 415.496094 576.667969 416.21875 C 561.359375 409.402344 561.070312 394.238281 541.117188 391.480469 L 530.601562 390.972656 L 514.203125 393.152344 L 507.675781 396.707031 L 501.800781 401.347656 L 495.921875 408.242188 C 494.109375 410.996094 491.0625 418.613281 489.757812 421.734375 C 486.78125 435.371094 487 452.132812 493.527344 464.609375 L 498.898438 473.167969 L 506.007812 479.554688 L 514.566406 483.980469 L 523.417969 487.171875 C 527.84375 488.1875 538.941406 487.535156 543.511719 487.171875 C 545.90625 485.792969 553.234375 481.800781 555.773438 481.078125 C 560.125 477.523438 565.566406 471.863281 567.816406 466.640625 L 571.734375 462.722656 L 577.390625 459.75 C 585.664062 459.964844 597.414062 460.546875 605.902344 459.457031 L 610.835938 462.648438 L 612.289062 467.074219 L 605.902344 485.71875 L 600.753906 494.570312 C 592.917969 505.742188 580.003906 517.207031 566.726562 521.050781 L 562.300781 523.515625 L 547.867188 526.492188 L 530.746094 527.722656 C 530.746094 527.722656 518.484375 526.636719 518.484375 526.636719 Z M 518.484375 526.636719 " fill-opacity="1" fill-rule="nonzero"/><path fill="#ffffff" d="M 686.125 525.402344 L 681.191406 524.894531 L 676.257812 525.402344 L 670.601562 525.113281 L 665.957031 524.167969 L 655.875 524.894531 C 653.480469 524.605469 648.472656 524.824219 646.078125 525.183594 L 628.449219 524.96875 L 621.125 521.777344 C 617.785156 514.957031 618.945312 500.519531 619.382812 492.902344 C 618.875 472.953125 619.308594 439 618.945312 419.121094 L 619.453125 414.480469 C 617.785156 407.949219 620.179688 386.332031 618.511719 379.945312 L 619.238281 369.863281 L 618.730469 360.503906 L 621.414062 355.355469 C 626.203125 353.46875 626.347656 353.175781 631.496094 353.613281 L 636.429688 353.105469 L 640.855469 353.613281 L 645.5 352.597656 C 665.738281 353.902344 689.316406 352.960938 709.773438 352.816406 L 714.199219 353.832031 L 719.351562 353.832031 L 724.285156 355.789062 C 728.78125 363.335938 725.953125 376.753906 726.96875 385.027344 L 724.503906 389.449219 C 719.933594 392.0625 720.222656 392.644531 714.707031 392.644531 C 711.878906 392.714844 676.257812 391.410156 674.878906 393.003906 L 670.238281 392.789062 L 664.867188 394.746094 L 662.691406 399.390625 L 662.691406 407.007812 L 664.652344 414.625 L 669.800781 416.800781 C 683.441406 416.148438 700.125 416.875 713.910156 416.511719 L 719.570312 419.703125 L 722.035156 426.59375 L 721.308594 448.648438 L 719.570312 453.582031 C 714.417969 455.832031 714.417969 455.613281 708.976562 455.324219 C 696.5 456.484375 681.988281 455.394531 669.511719 455.613281 L 665.085938 458.296875 L 662.910156 463.449219 L 662.910156 478.902344 L 664.867188 483.324219 L 670.019531 485.792969 L 675.386719 485.285156 L 680.03125 486.011719 C 682.644531 485.71875 687.792969 485.863281 690.332031 486.300781 C 697.296875 485.066406 708.542969 484.921875 715.507812 486.226562 C 721.457031 485.574219 720.800781 485.429688 726.316406 487.894531 L 729 492.828125 L 729 517.566406 L 726.316406 522.71875 L 721.164062 524.894531 Z M 686.125 525.402344 " fill-opacity="1" fill-rule="nonzero"/><path fill="#000000" d="M 337.503906 487.46875 C 326.621094 487.832031 313.636719 482.96875 306.378906 474.699219 C 301.519531 469.402344 295.0625 464.6875 293.320312 457.144531 C 291.582031 449.671875 289.695312 427.980469 293.828125 421.304688 C 306.234375 388.585938 357.019531 379.664062 381.972656 402.953125 C 393.726562 414.339844 400.109375 431.171875 397.0625 447.566406 C 393 476.296875 364.636719 491.09375 337.503906 487.46875 Z M 337.503906 487.46875 " fill-opacity="1" fill-rule="nonzero"/><path fill="#ffffff" d="M 363.632812 446.746094 C 345.789062 444.425781 352.605469 419.832031 370.742188 426.070312 C 380.828125 431.003906 377.925781 446.238281 366.535156 446.894531 Z M 363.632812 446.746094 " fill-opacity="1" fill-rule="nonzero"/><path fill="#ffffff" d="M 329.160156 425.542969 C 311.3125 423.222656 318.132812 398.628906 336.269531 404.867188 C 346.351562 409.800781 343.453125 425.035156 332.0625 425.6875 Z M 329.160156 425.542969 " fill-opacity="1" fill-rule="nonzero"/><path fill="#ffffff" d="M 328.796875 468.503906 C 326.402344 468.503906 323.5 467.488281 321.90625 465.601562 C 312.691406 456.898438 323.066406 443.332031 334.457031 447.25 C 348.023438 451.527344 342.796875 470.101562 328.796875 468.503906 Z M 328.796875 468.503906 " fill-opacity="1" fill-rule="nonzero"/><g clip-path="url(#4dcde79212)"><path fill="#ffffff" d="M 350.058594 337.332031 C 347.882812 336.460938 340.773438 337.117188 338.453125 337.332031 L 332.359375 334.867188 C 330.472656 332.617188 322.128906 321.734375 319.589844 320.503906 L 317.777344 317.457031 L 312.265625 312.886719 L 307.984375 306.5 L 304.9375 304.6875 L 303.414062 298.59375 L 306.460938 295.546875 L 309.796875 294.023438 C 311.683594 295.328125 343.457031 282.707031 345.78125 282.125 L 350.640625 284.230469 C 355.71875 294.820312 367.761719 322.460938 372.914062 334.285156 L 368.34375 336.753906 L 365.296875 336.753906 L 361.304688 337.695312 L 354.921875 336.753906 Z M 350.058594 337.332031 " fill-opacity="1" fill-rule="nonzero"/></g></svg>