<svg xmlns="http://www.w3.org/2000/svg" xmlns:xlink="http://www.w3.org/1999/xlink" width="1080" zoomAndPan="magnify" viewBox="0 0 810 809.999993" height="1080" preserveAspectRatio="xMidYMid meet" version="1.0"><rect x="-81" width="972" fill="#ffffff" y="-80.999999" height="971.999992" fill-opacity="1"/><rect x="-81" width="972" fill="#ffffff" y="-80.999999" height="971.999992" fill-opacity="1"/><path fill="#000000" d="M 404.832031 618.917969 L 379.191406 617.65625 L 342.941406 607.046875 C 337.257812 605.402344 311.492188 591.132812 305.808594 588.226562 C 302.652344 583.933594 292.296875 574.082031 288.253906 570.292969 C 284.339844 564.734375 266.277344 541.113281 264.003906 535.304688 C 248.214844 501.960938 247.835938 452.703125 255.414062 417.085938 C 265.265625 375.152344 298.105469 343.828125 334.859375 323.996094 L 351.027344 319.703125 C 371.992188 308.96875 402.9375 310.484375 425.800781 310.734375 C 484.152344 326.269531 521.539062 342.1875 548.691406 400.410156 C 559.300781 431.609375 562.710938 471.140625 555.890625 503.601562 L 553.367188 510.421875 C 552.355469 526.714844 535.558594 551.09375 526.84375 564.230469 L 497.035156 592.773438 C 486.171875 597.699219 454.089844 612.601562 442.722656 615.003906 C 442.722656 615.003906 404.832031 618.917969 404.832031 618.917969 Z M 392.960938 543.765625 L 417.714844 542.882812 C 421.503906 541.492188 429.460938 540.105469 433.503906 539.851562 C 436.914062 537.703125 444.238281 534.167969 448.027344 532.652344 C 464.953125 521.285156 463.941406 516.738281 474.804688 501.835938 C 477.332031 492.488281 480.234375 472.65625 481.121094 462.933594 L 479.351562 444.617188 C 477.582031 440.703125 474.804688 432.492188 473.792969 428.324219 C 472.40625 422.894531 463.691406 410.769531 460.53125 406.09375 C 429.839844 379.191406 378.941406 377.046875 349.382812 407.230469 L 343.828125 414.054688 L 340.039062 421.253906 C 325.511719 437.039062 328.921875 465.078125 331.070312 484.910156 L 339.152344 508.78125 C 342.058594 511.433594 346.859375 517.371094 349.003906 520.652344 L 362.269531 532.148438 L 376.792969 539.851562 L 384.496094 540.734375 C 384.496094 540.734375 392.960938 543.765625 392.960938 543.765625 Z M 392.960938 543.765625 " fill-opacity="1" fill-rule="nonzero"/><path fill="#ffffff" d="M 391.050781 548.578125 C 372.105469 549.210938 349.5 540.75 336.867188 526.351562 C 328.40625 517.128906 317.164062 508.921875 314.132812 495.785156 C 311.101562 482.773438 307.816406 445.011719 315.015625 433.390625 C 336.617188 376.425781 425.027344 360.890625 468.476562 401.433594 C 488.9375 421.265625 500.054688 450.566406 494.75 479.113281 C 487.675781 529.128906 438.164062 554.894531 391.050781 548.578125 Z M 391.050781 548.578125 " fill-opacity="1" fill-rule="nonzero"/><path fill="#000000" d="M 436.546875 477.683594 C 405.476562 473.644531 417.347656 430.824219 448.925781 441.6875 C 466.480469 450.277344 461.429688 476.800781 441.597656 477.9375 Z M 436.546875 477.683594 " fill-opacity="1" fill-rule="nonzero"/><path fill="#000000" d="M 376.527344 440.765625 C 345.457031 436.722656 357.328125 393.90625 388.90625 404.769531 C 406.460938 413.359375 401.410156 439.882812 381.578125 441.019531 Z M 376.527344 440.765625 " fill-opacity="1" fill-rule="nonzero"/><path fill="#000000" d="M 375.894531 515.5625 C 371.726562 515.5625 366.675781 513.796875 363.898438 510.511719 C 347.855469 495.355469 365.917969 471.734375 385.746094 478.554688 C 409.367188 486.007812 400.144531 518.34375 375.894531 515.5625 Z M 375.894531 515.5625 " fill-opacity="1" fill-rule="nonzero"/><path fill="#000000" d="M 412.914062 287.191406 C 409.125 285.675781 396.75 286.8125 392.707031 287.191406 L 382.097656 282.898438 C 378.8125 278.984375 364.289062 260.039062 359.867188 257.890625 L 356.710938 252.585938 L 347.109375 244.628906 L 339.660156 233.511719 L 334.355469 230.355469 L 331.703125 219.746094 L 337.007812 214.441406 L 342.816406 211.789062 C 346.101562 214.0625 401.421875 192.085938 405.464844 191.074219 L 413.925781 194.738281 C 422.769531 213.179688 443.734375 261.300781 452.703125 281.886719 L 444.746094 286.183594 L 439.441406 286.183594 L 432.492188 287.824219 L 421.378906 286.183594 Z M 412.914062 287.191406 " fill-opacity="1" fill-rule="nonzero"/></svg>