<?xml version="1.0" encoding="UTF-8"?>
<svg id="Livello_1" data-name="Livello 1" xmlns="http://www.w3.org/2000/svg" viewBox="0 0 893.22 338.74">
  <defs>
    <style>
      .cls-1 {
        fill: #bf8c4e;
      }

      .cls-1, .cls-2, .cls-3, .cls-4 {
        stroke-width: 0px;
      }

      .cls-2 {
        fill: #108337;
      }

      .cls-3 {
        fill: #fff;
      }

      .cls-4 {
        fill: #b81c12;
      }
    </style>
  </defs>
  <g id="Livello_3" data-name="Livello 3">
    <g>
      <path class="cls-1" d="M446.48,338.74l-20.3-1-28.7-8.4c-4.5-1.3-24.9-12.6-29.4-14.9-2.5-3.4-10.7-11.2-13.9-14.2-3.1-4.4-17.4-23.1-19.2-27.7-12.5-26.4-12.8-65.4-6.8-93.6,7.8-33.2,33.8-58,62.9-73.7l12.8-3.4c16.6-8.5,41.1-7.3,59.2-7.1,46.2,12.3,75.8,24.9,97.3,71,8.4,24.7,11.1,56,5.7,81.7l-2,5.4c-.8,12.9-14.1,32.2-21,42.6l-23.6,22.6c-8.6,3.9-34,15.7-43,17.6,0,0-30,3.1-30,3.1ZM437.08,279.24l19.6-.7c3-1.1,9.3-2.2,12.5-2.4,2.7-1.7,8.5-4.5,11.5-5.7,13.4-9,12.6-12.6,21.2-24.4,2-7.4,4.3-23.1,5-30.8l-1.4-14.5c-1.4-3.1-3.6-9.6-4.4-12.9-1.1-4.3-8-13.9-10.5-17.6-24.3-21.3-64.6-23-88,.9l-4.4,5.4-3,5.7c-11.5,12.5-8.8,34.7-7.1,50.4l6.4,18.9c2.3,2.1,6.1,6.8,7.8,9.4l10.5,9.1,11.5,6.1,6.1.7s6.7,2.4,6.7,2.4Z"/>
      <path class="cls-4" d="M435.57,283.05c-15,.5-32.9-6.2-42.9-17.6h0c-6.7-7.3-15.6-13.8-18-24.2-2.4-10.3-5-40.2.7-49.4,17.1-45.1,87.1-57.4,121.5-25.3,16.2,15.7,25,38.9,20.8,61.5-5.6,39.6-44.8,60-82.1,55Z"/>
      <path class="cls-3" d="M471.59,226.92c-24.6-3.2-15.2-37.1,9.8-28.5,13.9,6.8,9.9,27.8-5.8,28.7l-4-.2Z"/>
      <path class="cls-3" d="M424.07,197.69c-24.6-3.2-15.2-37.1,9.8-28.5,13.9,6.8,9.9,27.8-5.8,28.7l-4-.2Z"/>
      <path class="cls-3" d="M423.57,256.91c-3.3,0-7.3-1.4-9.5-4h0c-12.7-12,1.6-30.7,17.3-25.3,18.7,5.9,11.4,31.5-7.8,29.3Z"/>
      <path class="cls-2" d="M452.88,76.1c-3-1.2-12.8-.3-16,0l-8.4-3.4c-2.6-3.1-14.1-18.1-17.6-19.8l-2.5-4.2-7.6-6.3-5.9-8.8-4.2-2.5-2.1-8.4,4.2-4.2,4.6-2.1c2.6,1.8,46.4-15.6,49.6-16.4l6.7,2.9c7,14.6,23.6,52.7,30.7,69l-6.3,3.4h-4.2l-5.5,1.3-8.8-1.3-6.7.8Z"/>
    </g>
  </g>
</svg>