<?xml version="1.0" encoding="UTF-8"?>
<svg id="Livello_1" data-name="Livello 1" xmlns="http://www.w3.org/2000/svg" viewBox="0 0 458.27 384.45">
  <defs>
    <style>
      .cls-1 {
        fill: #b81e14;
      }

      .cls-1, .cls-2, .cls-3, .cls-4, .cls-5, .cls-6 {
        stroke-width: 0px;
      }

      .cls-2 {
        fill: #118237;
      }

      .cls-3 {
        fill: #fefcfb;
      }

      .cls-4 {
        fill: #bd8b4e;
      }

      .cls-5 {
        fill: #fefcfc;
      }

      .cls-6 {
        fill: #be8c4e;
      }
    </style>
  </defs>
  <path class="cls-6" d="M160.14,52.78c.65-.16,1.35-.21,1.94-.5,4.34-2.09,8.96-3.03,13.7-3.26,4.77-.23,9.54-.21,14.31-.27.67,0,1.36.05,2,.22,7.06,1.92,14.02,4.11,20.71,7.19,10.34,4.76,18.15,12.3,24.05,22.18,3.95,6.6,5.82,13.82,6.91,21.34.94,6.52,1.34,13.08.73,19.67-.33,3.62-.62,7.23-1.93,10.67-.38,1-.42,2.14-.68,3.2-.8,3.21-2.18,6.19-3.81,9.02-1.92,3.32-3.97,6.56-5.99,9.82-.3.48-.7.9-1.1,1.3-3.36,3.32-6.72,6.64-10.1,9.94-.52.51-1.11,1-1.76,1.3-5.44,2.46-10.92,4.85-16.36,7.32-3.1,1.41-6.39,1.67-9.69,2.02-3.07.32-6.14.72-9.22.94-1.56.11-3.14-.15-4.71-.12-4.03.08-7.92-.63-11.73-1.95-2.6-.9-5.29-1.54-7.91-2.4-1.44-.47-2.86-1.05-4.2-1.75-3.6-1.88-7.16-3.84-10.73-5.8-.48-.27-.93-.63-1.32-1.03-1.95-2-3.87-4.02-5.8-6.04-.31-.33-.67-.63-.93-1-2.93-4.23-6.01-8.36-8.72-12.73-2.12-3.42-3.16-7.37-4.05-11.32-1.87-8.33-2.35-16.76-1.8-25.28.3-4.73.81-9.43,1.94-14.02,2.27-9.19,7.05-16.9,13.45-23.62,3.79-3.98,8.05-7.35,12.58-10.39.44-.3.78-.75,1.17-1.13.36-.1.78-.11,1.07-.31,2.1-1.44,4.45-2.22,6.87-2.84.37-.09.73-.25,1.09-.37ZM145.5,110.17c.31,3.59.6,7.15.92,10.71.37,4.15,1.79,7.83,4.66,10.86,1.76,1.86,3.53,3.72,5.28,5.59,4.27,4.58,9.55,7.23,15.57,8.28,2.64.46,5.36.46,8.03.75,5.04.55,9.97-.07,14.81-1.48,7.46-2.17,13.82-6.16,18.42-12.64,6-8.46,7.65-17.98,5.43-28.11-1.85-8.45-6.2-15.44-12.97-20.65-5.49-4.22-11.87-6.21-18.66-6.73-7.27-.56-14.35.51-21.07,3.49-6.42,2.85-11.87,6.98-15.73,13.09-1.81,2.87-3.34,5.92-3.94,9.3-.44,2.48-.51,5.03-.75,7.55Z"/>
  <path class="cls-6" d="M102.38,94.98c-2.36.09-5.22.24-8.08.3-.69.01-1.45-.14-2.08-.43-2.76-1.3-4.92-3.4-6.95-5.67-1.56-1.74-3.03-3.56-4.63-5.27-3.76-4.03-8.42-5.88-13.82-6.27-4.19-.3-8.29-.02-12.4.7-.17.03-.33.05-.5.06-3.79.04-6.82,1.94-9.77,4.13-2.63,1.96-4.66,4.49-6.71,7.01-.39.48-.7,1.05-.97,1.61-.69,1.45-1.32,2.93-1.99,4.39-1.12,2.47-1.92,5.03-2.26,7.75-.97,7.77-.77,15.42,1.75,22.9,1.19,3.55,3.1,6.71,5.31,9.59,1.73,2.26,3.95,4.23,6.53,5.64,3.09,1.68,6.26,3.12,9.59,4.18.96.3,1.97.62,2.95.61,3.76-.02,7.52-.14,11.28-.28.53-.02,1.06-.32,1.56-.57,2.37-1.19,4.73-2.4,7.08-3.62.3-.15.6-.33.85-.55,3-2.65,5.6-5.61,7.65-9.14.86-1.48,2.35-2.56,3.57-3.82.11-.12.3-.16.44-.26,1.79-1.22,3.71-1.6,5.89-1.51,4.15.18,8.31.07,12.47.07.73,0,1.49.06,2.18-.13,1.57-.42,2.81.13,4.07,1.02,2.05,1.46,2.78,3.37,1.99,5.76-1.17,3.55-2.23,7.15-3.58,10.62-1.42,3.65-3.43,7-5.85,10.06-4.95,6.26-10.73,11.48-17.95,14.84-2.14,1-4.29,1.98-6.44,2.96-.2.09-.41.2-.63.24-4.35.87-8.63,2.11-13.09,2.36-2.58.14-5.16.45-7.74.47-2.24.02-4.48-.29-6.71-.41-7.55-.43-14.75-2.25-21.54-5.7-8.9-4.51-16.47-10.75-22.79-18.59-.46-.57-.83-1.23-1.16-1.9-1.43-2.94-2.77-5.93-4.26-8.84-1.71-3.34-2.93-6.82-3.77-10.5-1.47-6.45-2.16-12.99-1.77-19.56.31-5.22,1.22-10.42,2.07-15.59.88-5.31,3.21-10.06,5.87-14.64,4.83-8.3,11.18-15.14,18.89-20.67.5-.36,1.05-.66,1.61-.93,3.45-1.69,6.84-3.5,10.37-4.97,2.05-.86,4.3-1.23,6.49-1.7,3.19-.69,6.39-1.3,9.59-1.88,1.1-.2,2.23-.34,3.34-.3,4.88.21,9.76.48,14.64.76.66.04,1.33.22,1.96.43,4.69,1.59,9.38,3.19,14.05,4.82.79.28,1.55.68,2.26,1.13,2.06,1.29,4.05,2.72,6.14,3.94,3.01,1.76,5.68,3.92,7.9,6.65.89,1.1,1.68,2.29,2.46,3.48,1.57,2.39,3.08,4.82,4.67,7.19,1.52,2.27,2.44,4.8,3.22,7.39.45,1.49.82,3,1.3,4.48.28.87.1,1.65-.06,2.51-.48,2.58-2.34,3.3-4.45,3.71-3.18.63-6.38.33-10.07-.11Z"/>
  <path class="cls-6" d="M299.26,49.96c2.04-.37,4.07-.77,6.12-1.1,1.05-.17,2.12-.33,3.17-.28,4.94.21,9.87.48,14.81.77.66.04,1.32.24,1.96.45,4.64,1.57,9.27,3.15,13.9,4.77.84.29,1.65.72,2.41,1.2,2.54,1.6,4.98,3.37,7.58,4.85,2.98,1.7,5.26,4.18,7.35,6.78,2.06,2.57,3.64,5.54,5.49,8.29,2.81,4.17,4.07,8.96,5.33,13.75.4,1.52-.82,4.09-2.16,4.79-2.34,1.23-4.89,1.34-7.39,1.19-4.49-.29-8.97-.57-13.46-.13-.62.06-1.33-.18-1.9-.47-2.56-1.29-4.68-3.16-6.59-5.31-1.89-2.13-3.71-4.35-5.71-6.35-3.53-3.53-7.85-5.25-12.76-5.45-.06,0-.11,0-.17,0-4.8-.71-9.5.33-14.24.82-3.12.32-5.57,1.94-8.06,3.62-2.86,1.93-4.99,4.63-7.12,7.31-.35.44-.66.94-.89,1.46-1.16,2.63-2.44,5.21-3.37,7.92-.64,1.88-.88,3.93-1.13,5.92-.87,7.19-.45,14.28,1.81,21.2,1.2,3.66,3.15,6.95,5.45,9.9,1.79,2.29,4.04,4.28,6.69,5.71,2.99,1.62,6.08,2.97,9.29,4.03,1.11.36,2.3.67,3.45.67,3.59,0,7.18-.14,10.77-.29.58-.02,1.17-.34,1.71-.61,2.32-1.16,4.63-2.35,6.93-3.54.35-.18.71-.37,1-.63,2.98-2.67,5.59-5.62,7.63-9.16.85-1.48,2.37-2.55,3.59-3.79.11-.12.3-.16.44-.25,1.79-1.25,3.73-1.57,5.89-1.48,4.15.17,8.31.07,12.47.06.79,0,1.6.04,2.35-.15,1.39-.35,2.43.22,3.61.87,1.57.87,2.19,2.23,2.56,3.82.1.41.03.92-.1,1.33-1.3,3.99-2.48,8.04-4.02,11.93-.96,2.44-2.3,4.77-3.79,6.92-5.16,7.46-11.53,13.52-19.71,17.4-2.19,1.04-4.39,2.03-6.59,3.04-.2.09-.41.19-.63.23-4.35.84-8.63,2.13-13.09,2.35-1.63.08-3.26.18-4.87.36-3.44.38-6.84-.13-10.25-.36-5.87-.39-11.56-1.62-17.01-3.92-10.62-4.48-19.42-11.47-26.74-20.49-.39-.48-.69-1.05-.96-1.61-2.1-4.34-4.2-8.68-6.25-13.04-.41-.87-.64-1.84-.91-2.77-1.63-5.61-2.23-11.38-2.73-17.2-.41-4.8.43-9.43.95-14.11.31-2.8.82-5.59,1.33-8.36.91-4.89,3.05-9.29,5.49-13.51,4.81-8.3,11.11-15.2,18.82-20.74.5-.36,1.03-.7,1.59-.97,3.7-1.81,7.37-3.68,11.13-5.37,1.36-.61,2.92-.77,4.39-1.13.76-.19,1.53-.35,2.3-.52.95-.2,1.89-.4,2.84-.59Z"/>
  <path class="cls-6" d="M423.29,95.65c4.77,0,9.55.02,14.32-.01,2.02-.01,3.38,1.38,4.97,2.29.12.07.18.29.24.45.79,2.33,1.74,4.56,1.53,7.18-.3,3.73-.33,7.49-.39,11.24-.03,1.61-.52,3.06-1.07,4.51-.15.39-.49.85-.85.97-1.26.45-2.56,1.04-3.87,1.08-5.72.19-11.45.25-17.18.27-3.82.01-7.64-.16-11.46-.16-2.49,0-4.34,1.12-5.37,3.61-.59,1.42-.88,2.81-.84,4.35.07,2.48,0,4.96.03,7.45,0,.62.1,1.27.31,1.85,1.14,3.11,3.42,4.45,6.66,4.11,1.04-.11,2.11-.01,3.17.04,4.47.21,8.94.53,13.42-.02,3.97-.49,7.96-.23,11.93.3.93.13,1.92.09,2.84-.08,1.97-.35,3.79.24,5.27,1.34,1.29.95,2.15,2.6,2.18,4.3.09,5.42.2,10.86-.04,16.27-.09,2.12-1.02,4.16-3.37,5.08-1.4.55-2.75.85-4.23.86-6.63.07-13.26.21-19.88.3-1.23.02-2.46-.13-3.69-.18-1.01-.04-2.03-.18-3.02-.04-2.82.39-5.59.06-8.37-.38-1.15-.18-2.34-.08-3.51-.05-5.61.13-11.22.29-16.83.42-.95.02-1.92-.11-2.86,0-2.93.37-5.5-.68-8.05-1.95-.67-.33-1.14-.75-1.28-1.47-.37-1.86-.94-3.72-.98-5.59-.09-4.32.08-8.65.15-12.97,0-.4.04-.81.04-1.21-.08-15.81-.18-31.63-.24-47.44,0-2.53.19-5.07.23-7.6.01-.86-.2-1.71-.23-2.57-.07-2.42-.11-4.85-.12-7.27,0-1.85.13-3.69.11-5.54-.07-6.74-.15-13.48-.03-20.21,0-.4.04-.83-.05-1.21-.55-2.14.6-3.79,1.52-5.49.19-.36.65-.6,1.03-.8,1.53-.8,3.15-1.14,4.89-1.02,1.06.07,2.13-.07,3.19-.08,1-.01,2.01.03,3.01,0,.94-.02,1.89-.06,2.83-.13,1.11-.09,2.22-.35,3.33-.33,6.74.1,13.48.37,20.21.38,7.25.01,14.49-.19,21.74-.29.56,0,1.14-.03,1.67.11,1.86.49,3.76.57,5.66.69,1.24.08,2.47.7,3.64,1.22.39.17.65.76.85,1.21.9,2.03,1.21,4.22,1.25,6.41.09,4.27.11,8.54,0,12.81-.04,1.51-.89,2.91-2.04,3.83-1.51,1.2-3.2,2.1-5.25,2.04-3.7-.1-7.41-.12-11.12-.13-4.83-.02-9.66-.02-14.49.03-2.01.02-4.04.06-6.03.35-1.3.19-2.84.51-3.73,1.37-.93.89-1.55,2.44-1.73,3.78-.41,3.17.05,6.32,1.01,9.38.21.66.53,1.06,1.14,1.36,1.6.78,3.21,1.14,5.02,1.09,4.27-.13,8.54-.04,12.81-.04,0-.02,0-.05,0-.07Z"/>
  <path class="cls-4" d="M17.57,196.48c2.02,1.26,3.74,2.88,5.34,4.66.64.71,1.37,1.33,2.06,1.99,0,0,0,0,0,0,.46.46.92.92,1.38,1.38.46.54.91,1.07,1.37,1.61.34.46.64.95,1.01,1.37,4,4.44,8.01,8.88,12.03,13.31,2.14,2.36,4.3,4.7,6.44,7.05.34.38.71.76.95,1.21.58,1.11,1.53,1.68,2.64,1.95.43.11,1.02.06,1.39-.18.81-.51,1.6-1.09,2.25-1.79,6.11-6.52,12.21-13.06,18.27-19.64,3.08-3.35,6.05-6.82,9.08-10.21,1.66-1.86,3.85-2.8,6.19-3.24.74-.14,1.73.4,2.43.9,1.13.8,1.87,2,1.87,3.47,0,3.05-.14,6.11-.13,9.16.03,5.54.18,11.07.2,16.61.04,13.67.08,27.34-.02,41.01-.02,2.71-.02,5.41.05,8.11.06,2.58-.6,4.91-3.26,6.01-.15.06-.28.18-.43.28-4.92-.14-9.85-.29-14.77-.43-.1-.06-.19-.15-.29-.16-2.23-.27-2.73-2-2.81-3.83-.14-2.99-.05-5.99-.09-8.98-.03-2.25-.12-4.49-.13-6.74-.03-4.55.02-9.1-.05-13.65-.01-.75-.44-1.5-.77-2.52-.88.6-1.63.97-2.22,1.53-1.99,1.86-3.96,3.74-5.87,5.68-.88.89-1.57,1.96-2.43,2.87-1.76,1.86-3.52,3.72-5.38,5.46-1.2,1.12-3.01,1.19-4.32.13-1.84-1.49-3.59-3.13-5.29-4.79-1.21-1.19-2.28-2.54-3.43-3.8-1.26-1.39-2.51-2.8-3.8-4.16-.97-1.02-1.91-2.12-3.33-2.4-.94.48-1.22,1.21-1.17,2.17.08,1.61.17,3.22.16,4.84-.02,3.22-.14,6.44-.15,9.67-.02,3.98.02,7.95.04,11.93,0,.69.07,1.38.09,2.07.06,1.8-.81,3.03-2.31,3.86-1.58.87-3.2,1.32-5.01.89-.59-.14-1.23-.03-1.85-.02-1.85.04-3.69.09-5.54.14-.56.01-1.12-.02-1.67.05-3.04.35-5.45-1.82-5.45-5.01,0-7.56.02-15.11.06-22.67.03-5.71.16-11.42.13-17.12-.03-8.13-.17-16.26-.25-24.38,0-.46.01-.92.02-1.38.02-2.65.17-5.3.02-7.94-.13-2.27.11-4.34,1.39-6.23.67-.25,1.33-.5,2-.75.23-.02.46-.04.68-.06.9.25,1.79.5,2.69.74Z"/>
  <path class="cls-4" d="M284.87,237.48c.19-3.8.15-7.64,1.12-11.34,1.01-3.83,2.03-7.68,4.28-11.02,1.79-2.65,3.43-5.42,5.7-7.7.32-.32.59-.71.95-.97,3.6-2.55,7.21-5.09,10.83-7.62.18-.13.39-.24.6-.31,3.32-1.05,6.62-2.17,9.97-3.08,1.5-.41,3.11-.49,4.67-.54,3.25-.11,6.51-.12,9.76-.12.6,0,1.22.15,1.81.34,4.51,1.42,9.01,2.86,13.51,4.3.43.14.86.28,1.25.5,4,2.28,7.65,5.07,10.8,8.47,1.46,1.58,2.74,3.35,4.06,5.07.41.53.67,1.19.97,1.81.25.52.39,1.09.69,1.58,2.19,3.65,3.16,7.75,3.97,11.85.94,4.76.94,9.6.71,14.47-.18,3.84-1.21,7.48-1.95,11.2-.14.73-.4,1.46-.75,2.11-1.64,3.02-3.29,6.04-5.04,9-.63,1.07-1.51,2-2.38,2.89-2.04,2.07-4.13,4.08-6.22,6.1-.4.39-.83.82-1.32,1.04-4.37,1.94-8.54,4.39-13.18,5.68-1.5.42-3.07.65-4.62.83-4.46.53-8.93.97-13.43.45-.44-.05-.91-.02-1.33-.15-5.25-1.65-10.63-2.83-15.47-5.74-2.67-1.6-5.22-3.2-7.43-5.52-3.09-3.25-5.56-6.95-7.97-10.69-.94-1.45-1.27-3.31-1.99-4.92-1.98-4.44-2.7-9.11-2.56-13.95.04-1.33,0-2.65,0-3.98ZM328.27,216.03c-2.29.23-4.64.18-6.84.76-4.91,1.3-8.8,4.18-11.38,8.77-.25.45-.49.93-.85,1.28-1.02,1.02-1.41,2.33-1.72,3.69-.81,3.56-1.03,7.14-.69,10.81.32,3.4,1.56,6.47,2.54,9.64.05.16.14.32.25.45,2.42,3.04,4.88,5.99,8.42,7.8,1.4.72,2.91.81,4.29,1.36,1.75.7,3.49.7,5.29.61,2.13-.11,4.22-.42,6.33-.77,2.31-.38,4.19-1.57,6.15-2.63,3.42-1.84,4.96-5.38,7-8.45.15-.22.19-.54.24-.82.46-2.72.94-5.44,1.36-8.17.15-.96.21-1.95.2-2.92-.03-3.04-.84-5.91-1.87-8.73-1.72-4.67-4.6-8.2-9.15-10.26-3.07-1.39-6.1-2.68-9.55-2.41Z"/>
  <path class="cls-4" d="M399.74,241.23c-1.07,1.73-1.11,3.59-1.12,5.43-.05,9.29-.09,18.59-.06,27.88,0,1.79-.43,3.43-1.06,5.02-.52,1.3-1.85,1.55-3.03,1.84-.54.13-1.12.09-1.68.08-3.48-.05-6.95-.1-10.43-.18-.84-.02-1.69-.1-2.5-.3-2.08-.53-3.02-1.67-3.1-3.88-.11-3.11-.15-6.23-.16-9.35-.02-5.65-.01-11.31.04-16.96.02-2.47.18-4.95.27-7.42.01-.29,0-.58,0-.87-.04-14.02-.09-28.04-.11-42.07,0-2.36,1.4-4.29,3.62-4.44,1.38-.09,2.87.45,4.21.98,1.9.74,3.49,2.05,4.93,3.54,7.02,7.31,14.07,14.61,21.1,21.91.47.49.91,1.05,1.44,1.45,4.01,3.02,7.25,6.89,10.78,10.43.74.74,1.49,1.37,2.79,1.55.19-.87.53-1.74.55-2.61.13-6.87.29-13.74.23-20.6-.02-2.54,0-5.06.08-7.59.04-1.31-.21-2.64-.22-3.95-.02-2.76,2.34-5.35,5.31-5.24,3.93.16,7.86.04,11.8-.05,2.61-.06,4.71,1.98,4.78,4.52.16,5.48.29,10.96.3,16.45,0,4.55-.43,9.12-.25,13.66.62,15.29-.02,30.58.13,45.86,0,.68-.02,1.39-.18,2.05-.42,1.76-1.58,2.76-3.31,2.91-1.56.14-3.12.06-4.57-.76-2.04-1.15-3.74-2.69-5.35-4.42-3.56-3.85-7.22-7.59-10.87-11.36-2.61-2.7-5.25-5.39-7.91-8.03-.88-.88-1.89-1.62-2.84-2.42-.3-.26-.62-.49-.9-.77-2.72-2.75-5.45-5.49-8.15-8.26-.87-.89-1.71-1.83-2.48-2.81-.53-.66-1.11-1.12-2.07-1.2Z"/>
  <path class="cls-4" d="M229.4,241.24c-.26,1.04-.57,2.06-.75,3.12-.13.79-.1,1.61-.11,2.42-.06,9.29-.14,18.59-.14,27.88,0,1.73-.42,3.32-1.01,4.86-.51,1.33-1.84,1.55-3.01,1.87-.53.14-1.12.09-1.68.08-3.53-.05-7.07-.09-10.6-.19-.89-.02-1.78-.21-2.66-.38-1.99-.37-2.64-1.75-2.75-3.76-.16-2.82-.24-5.65-.25-8.48-.03-7.44-.2-14.89.02-22.32.44-15.11.08-30.23.23-45.34,0-.68,0-1.41.22-2.04.75-2.28,2.68-3.27,5.01-2.79,2.92.59,5.32,2.09,7.38,4.23,7.23,7.51,14.44,15.04,21.72,22.5,2.02,2.07,4.29,3.89,6.37,5.9,1.88,1.82,3.64,3.78,5.51,5.6.67.65,1.52,1.1,2.38,1.71.65-1.17.92-2.19.92-3.3,0-7.68,0-15.35.02-23.03,0-.46-.02-.93.04-1.38.29-2.42.07-4.83-.02-7.24-.11-2.74,2.35-5.42,5.23-5.3,3.92.17,7.87.06,11.8-.05,2.71-.08,4.84,2.17,4.9,4.81.12,5.14.3,10.27.3,15.41,0,4.84-.46,9.7-.26,14.52.65,15.29-.16,30.58.03,45.86,0,.63.06,1.31-.12,1.89-.45,1.39-1.1,2.57-2.79,2.84-1.84.29-3.55.2-5.2-.7-2.01-1.09-3.64-2.64-5.22-4.31-5.36-5.67-10.8-11.26-16.25-16.85-1.82-1.87-3.56-3.83-5.75-5.31-.96-.65-1.63-1.73-2.48-2.58-2.1-2.09-4.23-4.14-6.32-6.24-.84-.84-1.56-1.81-2.4-2.66-.53-.54-1.17-.97-1.76-1.45l-.53.2Z"/>
  <path class="cls-4" d="M96.39,280.54c-1.04-2.32-.56-4.37.4-6.44.9-1.91,1.64-3.9,2.45-5.86.07-.16.12-.34.23-.46,1.37-1.48,1.76-3.44,2.5-5.24.39-.95.87-1.87,1.31-2.8.63-1.35,1.24-2.71,1.87-4.06.24-.52.51-1.02.78-1.52.21-.4.54-.77.65-1.2.9-3.56,2.72-6.7,4.21-9.98,2.58-5.7,5.35-11.31,7.84-17.05,1.14-2.61,2.57-5.12,3.23-7.94.05-.22.14-.45.27-.63,2.43-3.59,3.56-7.81,5.38-11.7,1.02-2.17,1.99-4.37,3.05-6.52,1.29-2.61,3.71-3.94,6.27-4.08,2.63-.15,5,1.23,6.32,3.84.95,1.89,1.79,3.84,2.66,5.77,2.13,4.7,4.26,9.39,6.36,14.1,1.47,3.3,2.86,6.64,4.3,9.95.23.52.51,1.03.79,1.52,1.69,2.99,3.24,6.04,4.22,9.37.21.71.53,1.41.94,2.02,1.84,2.74,2.77,5.91,4.11,8.89,1.22,2.72,2.51,5.41,3.76,8.11.26.57.51,1.15.77,1.73,1.19,2.67,2.42,5.32,3.56,8.01,1.1,2.58,2.16,5.19,3.14,7.82.58,1.58.49,2.34-.05,4.32-2.35.66-4.79.81-7.26.76-1.51-.03-3.03-.15-4.52.02-3.25.36-6.14-.39-8.63-2.56-.48-.42-.96-1.03-1.11-1.63-.76-3.12-2.71-5.11-5.49-6.33-.58-.25-1.28-.28-1.92-.3-.61-.02-1.23.16-1.84.16-3.37-.01-6.73-.03-10.1-.09-1.62-.03-3.24-.2-4.86-.24-1.01-.03-2.02.08-3.02.09-1.39.02-2.78.03-4.18,0-1.47-.04-2.51.89-3.56,1.72-1.3,1.03-2.24,2.38-2.98,3.91-.51,1.06-1.27,2.02-2.02,2.93-1.24,1.52-2.99,2.02-4.81,2.08-2.69.09-5.38.01-8.07.02-.9,0-1.8.04-2.69.11-2.12.17-2.12.18-4.28-.64ZM136.94,233.54c-.97.44-1.43,1.18-1.79,2.07-1.29,3.13-2.63,6.24-3.96,9.36-.29.69-.68,1.35-.86,2.06-.62,2.5-.25,3.78,2.81,3.68.17,0,.33-.06.5-.06.5-.02,1.01-.05,1.51-.02,1.9.1,3.8.22,5.7.32,2.86.14,3.76-2.34,2.84-4.38-1.62-3.61-3.1-7.29-4.58-10.97-.42-1.04-1.03-1.75-2.17-2.05Z"/>
  <path class="cls-4" d="M348.9,317.52c1.25-1.22,2.86-.93,4.5-.87,3.92.14,7.85.19,11.78.17,1.95-.01,3.9-.26,5.84-.38.5-.03,1.03-.08,1.51.04,2.45.62,4.92.21,7.38.16,2.07-.04,4.13-.2,6.2-.2,2.24,0,4.49.21,6.73.19,1.49-.01,3.53,1.87,3.55,3.78.02,2.65-.04,5.31-.14,7.96-.06,1.65-1.88,3.78-3.81,3.62-2.83-.24-5.69-.16-8.54-.1-1.9.04-2.71.79-3.16,2.68-.2.83-.38,1.7-.38,2.55-.06,8.07-.09,16.15-.1,24.22,0,5.65.19,11.3,0,16.94-.14,4.25-1.01,4.9-5.06,5.23-2.07.17-4.16.14-6.23.07-.99-.03-2-.24-2.95-.54-1.76-.55-2.45-1.86-2.32-3.81.1-1.67.11-3.35.11-5.02,0-7.67-.04-15.35-.05-23.02,0-5.13,0-10.27.03-15.4,0-2.09-1.45-3.78-3.5-3.83-2.97-.07-5.95-.05-8.93-.07-.11,0-.23,0-.34.02-1.15.18-2.05-1.22-3.47-.26-.91.62-2.38.39-3.6.45-.66.04-1.34-.14-2.01-.16-1.45-.05-2.91-.13-4.36-.07-1.82.07-2.66.79-3.08,2.55-.21.89-.38,1.81-.39,2.72-.09,7.9-.18,15.8-.19,23.69,0,5.52.17,11.05.13,16.57,0,1.41-.5,2.81-.77,4.22-.12.63-.53,1.02-1.12,1.15-1.14.26-2.28.63-3.44.7-2.07.13-4.16.13-6.23.08-.88-.02-1.78-.21-2.62-.48-1.88-.6-2.57-1.88-2.51-3.9.08-2.59,0-5.18.01-7.77,0-2.25.05-4.5.05-6.75,0-4.38,0-8.77,0-13.15,0-3.11.04-6.22.06-9.34.02-2.24.08-4.49.02-6.73-.05-1.64-1.31-3.39-3.34-3.47-2.92-.12-5.86-.29-8.75-.04-2.17.18-3.91-1.39-3.93-3.66-.02-2.42.06-4.85,0-7.27-.02-.97.18-1.8.64-2.63.7-1.28,1.74-1.87,3.16-1.83,4.49.11,8.98.25,13.46.27,1.94,0,3.88-.25,5.83-.37.61-.04,1.26-.11,1.84.04,1.73.45,3.46.3,5.2.24,2.68-.1,5.37-.27,8.05-.29,2.41-.02,4.82.09,7.23.25.63.04,1.23.49,2,.82Z"/>
  <path class="cls-4" d="M200.89,381.51c-.56-1.6-.57-3.26-.57-4.93,0-6.4-.05-12.81-.06-19.21-.03-11.71-.03-23.42-.07-35.13,0-1.11.16-2.14.56-3.19.54-1.44,1.6-2.11,2.94-2.21,2.79-.21,5.56-.73,8.39-.08.99.23,2.1-.08,3.16-.15.83-.06,1.7-.31,2.5-.15,2.68.54,5.39.43,8.06.25,4.65-.31,9.05.63,13.33,2.3,1.99.78,3.9,1.78,5.28,3.57.17.22.39.41.58.62,4.4,4.82,4.32,3.91,6.33,11.13.97,3.51,1,7.13.47,10.78-.56,3.79-2.59,6.84-4.33,10.04-.37.67-1.09,1.14-1.65,1.7-1.3,1.31-2.1,2.85-1.89,4.78.05.43.22.89.44,1.26,2.5,4.1,5.03,8.18,7.53,12.29.89,1.46,1.74,2.94,2.53,4.46.96,1.85.1,3.62-1.93,3.94-.94.15-1.9.14-2.86.14-2.64-.02-5.27-.08-7.91-.1-2.19-.02-4.26-.4-5.89-2.03-.59-.59-1.11-1.3-1.54-2.03-1.81-3.11-3.57-6.25-5.33-9.39-.47-.85-.88-1.74-1.31-2.61-.98-2-2.48-3.22-4.73-3.33-.61-.03-1.26-.05-1.83-.25-1.81-.64-3.9.72-4.08,3.17-.17,2.29,0,4.61-.06,6.91-.06,2.52.21,5.06-.57,7.53-.23.73-.62,1.08-1.33,1.37-2.22.91-4.54.55-6.82.69-1.23.07-2.46.03-3.69-.04-.66-.04-1.3-.25-1.96-.38-.64-.5-1.58-.69-1.7-1.73ZM216.92,340.22s.05,0,.07,0c0,1.67-.05,3.34.01,5.01.08,2.05,1.59,3.31,3.59,3.21,1.17-.06,2.35-.06,3.52.02,2.03.14,4.01-.05,5.99-.59,2.51-.69,4.1-2.35,4.86-4.8.68-2.2.66-4.51-.33-6.58-.99-2.06-2.25-3.96-4.92-4.11-2.61-.15-5.18-.9-7.83-.34-.37.08-.78,0-1.17-.01-2.54-.04-3.65,1.13-3.77,3.55-.08,1.55-.01,3.1-.01,4.66Z"/>
  <path class="cls-4" d="M35.59,315.55c2.01.15,4.03.29,6.04.47.44.04.87.19,1.3.33.96.32,1.9.72,2.87.99,3.45.95,6.58,2.56,9.55,4.58,2.15,1.46,3.95,3.19,5.29,5.45.46.78,1.08,1.47,1.61,2.22,1.63,2.33,2.54,4.99,3.26,7.72.51,1.94-.3,3.35-2.22,3.63-1.32.19-2.67.13-4.01.13-1.79,0-3.6-.16-5.38-.03-1.61.12-2.88-.46-3.94-1.54-1.39-1.42-2.7-2.93-3.97-4.46-1.89-2.26-4.47-2.98-7.14-3.48-3.16-.6-6.29-.01-9.36.6-2.3.46-4.1,2.09-5.7,3.83-3.23,3.53-4.64,7.81-4.78,12.58-.04,1.5-.09,3.01.04,4.5.31,3.78,1.89,7.09,4,10.12.67.96,1.61,1.83,2.59,2.45,3.23,2.04,6.59,3.76,10.56,3.42.62-.05,1.23-.08,1.85-.07,1.27.02,2.42-.31,3.52-.99,1.06-.65,2.37-.96,3.25-1.78,1.44-1.33,2.77-2.86,3.89-4.49.94-1.36,1.94-2.53,3.43-3.18.45-.2.96-.33,1.44-.34,3.14-.06,6.28-.08,9.41-.11,1.75-.02,3.37,1.81,2.84,3.43-.98,3-1.69,6.1-3.36,8.83-3.22,5.29-7.53,9.15-13.19,11.58-5.5,2.36-11.15,2.66-16.97,2.43-5.78-.22-10.98-2.22-15.86-5.17-1.96-1.19-3.63-2.88-5.38-4.4-3.83-3.31-5.77-7.91-7.62-12.47-1.2-2.97-1.53-6.24-1.73-9.48-.3-4.89.25-9.7,1.57-14.36,1.33-4.71,3.82-8.84,7.16-12.37,1.05-1.12,2.21-2.14,3.36-3.14,1.5-1.31,3.17-2.33,4.89-3.33,4.17-2.42,8.76-3.14,13.34-3.97,1.14-.21,2.35-.03,3.53-.03,0-.04,0-.07,0-.11Z"/>
  <path class="cls-4" d="M288.06,383.73c-2.52,0-5.07.22-7.56-.05-5.5-.59-10.98.2-16.46-.1-.56-.03-1.12-.05-1.66-.19-1.88-.46-3.06-1.61-3.14-3.68-.07-1.72-.08-3.45-.11-5.18-.03-1.67-.08-3.33-.08-5,0-.75.14-1.49.14-2.24.04-5.14.08-10.27.06-15.41,0-2.53-.21-5.06-.2-7.6,0-4.78.12-9.56.13-14.34,0-3.05-.02-6.1-.17-9.14-.12-2.41,1.28-4.06,3.68-4.11,2.12-.04,4.25-.27,6.37-.26,3.64,0,7.28.18,10.92.2,3.65.02,7.3-.13,10.95-.11,2.01.01,4.03.17,6.03.4,1.81.2,2.77,1.34,2.84,3.24.1,2.71.14,5.42.17,8.13.02,1.82-1.65,3.48-3.63,3.6-1.12.07-2.25.04-3.37.03-3.2-.03-6.4-.11-9.61-.09-1.62.01-3.24.14-4.85.32-1.86.21-2.81,1.27-2.85,3.19-.02,1.14.13,2.29.27,3.43.26,2.14,1.45,2.56,3.31,2.57,4.83.01,9.65-.03,14.48-.03.6,0,1.22.1,1.79.29,1.91.62,2.49,2.29,2.54,4.06.07,2.59-.04,5.2-.23,7.78-.15,2.03-.71,3-3.43,3.05-3.2.05-6.4.13-9.6.15-1.79,0-3.59-.06-5.38-.15-2.13-.11-3.66,1.63-3.65,3.83,0,1.5.04,3,0,4.5-.07,2.28,1.76,3.48,3.58,3.4,1.28-.06,2.57.08,3.86.08,4.71.01,9.42,0,14.13,0,2.02,0,3.46,1.49,3.49,3.61.03,2.48-.06,4.97.02,7.44.08,2.58-1.5,4.24-4.01,4.21-2.92-.03-5.84,0-8.76,0,0,.05,0,.1,0,.15Z"/>
  <path class="cls-4" d="M117.11,383.73c-2.52,0-5.07.22-7.56-.04-5.44-.57-10.87.19-16.3-.1-.61-.03-1.23-.06-1.83-.19-1.91-.44-3.04-1.64-3.12-3.69-.07-1.72-.08-3.45-.11-5.18-.03-1.67-.09-3.33-.08-5,0-.98.16-1.95.16-2.93.04-4.73.08-9.47.06-14.2-.01-2.88-.21-5.76-.21-8.63,0-4.61.11-9.21.12-13.82,0-3.05-.03-6.1-.17-9.14-.11-2.39,1.28-4.05,3.7-4.08,2.12-.03,4.25-.27,6.37-.27,3.64,0,7.28.19,10.92.2,3.65.01,7.3-.14,10.95-.11,2.01.01,4.03.17,6.03.4,1.8.21,2.75,1.35,2.82,3.26.1,2.71.13,5.42.18,8.13.03,1.82-1.75,3.49-3.66,3.58-1.51.07-3.03.03-4.55.02-2.7-.02-5.39-.1-8.09-.07-1.73.02-3.47.13-5.19.32-1.87.21-2.79,1.27-2.83,3.21-.02,1.09.11,2.18.25,3.26.28,2.21,1.18,2.7,3.36,2.71,4.83.03,9.65-.02,14.48-.02.6,0,1.22.11,1.79.29,1.92.62,2.47,2.31,2.52,4.07.07,2.59-.07,5.19-.24,7.78-.14,2.16-1.18,3.02-3.28,3.04-3.31.03-6.62.13-9.94.15-1.79.01-3.59-.09-5.38-.12-2.17-.04-3.35,1.63-3.44,3.47-.09,1.73-.09,3.47,0,5.19.11,1.9,1.17,2.87,3.24,3.01,2.12.14,4.25.11,6.38.14.67,0,1.34-.04,2.02-.06,2.13-.03,4.25-.07,6.38-.08,1.12,0,2.24.1,3.36.1,2.1,0,3.64,1.44,3.64,3.63,0,2.6.03,5.19,0,7.79-.03,2.39-1.43,3.77-3.67,3.82-3.03.07-6.07.02-9.1.02,0,.05,0,.1,0,.15Z"/>
  <path class="cls-4" d="M453.4,383.61c-2.11,0-4.07-.04-6.03.01-2.14.05-3.94-.8-5.55-2.14-.4-.33-.65-.91-.85-1.42-.51-1.29-.97-2.56-2.14-3.43-1.34-.99-2.59-1.7-4.44-1.49-2.61.29-5.27.07-7.91.02-1.51-.03-3.02-.17-4.53-.22-.78-.02-1.57.06-2.35.12-.67.05-1.38.28-2.01.14-2.86-.62-4.31,1.31-5.74,3.26-.33.46-.56,1-.81,1.52-1.02,2.08-2.68,3.24-4.93,3.36-2.01.11-4.04.06-6.06.09-1.06.02-2.13.04-3.19.09-2.98.16-3.55-1.25-2.97-4,.13-.61.44-1.18.69-1.76,1.38-3.13,2.75-6.28,4.18-9.39.98-2.13,2.08-4.21,3.05-6.34.57-1.25.93-2.59,1.49-3.84,2.7-5.9,5.46-11.77,8.14-17.67.99-2.18,1.75-4.48,2.74-6.67,1.72-3.81,3.54-7.57,5.3-11.36.29-.62.56-1.26.8-1.9.82-2.25,2.26-3.76,4.58-4.41,1.75-.49,3.22.08,4.53,1.1.69.53,1.25,1.35,1.64,2.16,1.27,2.69,2.41,5.44,3.64,8.14,1.5,3.29,3.04,6.56,4.56,9.84,1.76,3.79,3.56,7.56,5.27,11.38,1.75,3.92,3.37,7.9,5.12,11.82,1.96,4.4,4.04,8.74,6.01,13.13.84,1.88,1.55,3.83,2.29,5.76.14.37.26.77.29,1.17.18,1.91-.12,2.31-1.97,2.58-1,.15-2,.24-2.86.33ZM425.81,346.12c-.34.39-.82.76-1.03,1.24-1.38,3.15-2.77,6.3-4.03,9.5-.68,1.73.14,2.76,1.98,2.77.73,0,1.45,0,2.18,0,1.45.03,2.91.16,4.35.08,2-.11,2.76-1.42,2-3.32-1.16-2.87-2.39-5.71-3.55-8.58-.32-.8-.75-1.4-1.88-1.7Z"/>
  <path class="cls-4" d="M168.77,316.83c3.54-.09,7.07-.22,10.61-.25,2.46-.03,4.92.08,7.38.11,1.74.02,3.48.02,5.22.04,1.73.01,2.5.57,3.2,2.22.46,1.08.64,2.15.56,3.35-.11,1.78-.14,3.59.06,5.35.26,2.37-1.44,4.41-4.03,4.33-5.1-.16-10.21-.14-15.32-.17-2.91-.02-4.41,1.69-4.29,4.63.08,1.95,0,3.91-.1,5.87-.13,2.49,1.54,4.05,4.15,4.26,4.16.32,8.29-.2,12.44.04.67.04,1.34.14,1.99.28,1.55.33,2.26,1.48,2.34,2.97.13,2.48.2,4.96.11,7.44-.04,1.06-.36,2.19-.85,3.13-.52,1.02-1.63,1.35-2.73,1.36-2.46.04-4.93,0-7.4.03-.89,0-1.78.12-2.67.14-.5.01-1-.06-1.5-.08-.84-.03-1.69-.15-2.51-.05-2.14.26-3.16,1.47-3.17,3.7-.01,2.02.02,4.04.03,6.06.01,2.47.02,4.95.04,7.42.02,2.46-1.23,4.06-3.59,4.4-3.36.47-6.74.36-10.09.04-2.04-.19-3.51-1.31-3.51-4.02,0-8.94-.05-17.89-.04-26.83,0-2.82.21-5.64.22-8.46,0-3.62-.13-7.25-.13-10.87,0-1.84.18-3.69.21-5.53.02-1.09-.15-2.19-.13-3.28.03-1.72.05-3.46.28-5.16.2-1.56,1.46-2.53,3.11-2.55,3.37-.04,6.74-.01,10.1-.01v.1Z"/>
  <path class="cls-2" d="M202.14,36.9c-1.53,1.02-2.82,1.94-4.52,1.77-.22-.02-.45.01-.67.08-1.93.58-3.85.34-5.82.23-3.86-.2-7.74,0-11.61-.03-2.49-.02-4.73-.8-6.38-2.84-2.51-3.11-4.82-6.38-7.81-9.05-1.11-2.24-3.15-3.54-4.86-5.18-.96-.93-1.54-2.26-2.37-3.34-.58-.75-1.25-1.47-2-2.03-.68-.51-1.18-1.03-1.3-1.9-.04-.28-.13-.56-.2-.84-.58-2.36-.15-3.43,1.94-4.62.58-.33,1.22-.66,1.86-.77,4.51-.8,8.73-2.58,13.02-4.13,3.55-1.29,7.06-2.68,10.59-4.01,1.97-.75,4.59.4,5.45,2.38,4.7,10.86,9.39,21.72,14.08,32.58.22.51.38,1.06.61,1.71Z"/>
  <path class="cls-4" d="M75.5,340.92c-.95,0-1.91.05-2.86-.01-1.31-.09-1.87-.96-1.49-2.23.34-1.15.68-2.3,1-3.46.31-1.15.06-1.97-1.01-2.39-2.7-1.04-3.95-3.23-4.73-5.88-.88-2.98.77-7.5,3.35-9.14,3.02-1.91,6.24-2.29,9.52-.98,3.99,1.6,6.13,5.53,5.21,9.68-.57,2.57-1.38,5.07-2.43,7.5-.65,1.51-.95,3.19-1.41,4.8-.42,1.47-1.3,2.16-2.8,2.18-.79.01-1.57,0-2.36,0,0-.02,0-.05,0-.07Z"/>
  <path class="cls-4" d="M116.38,307.5c-1.28,1.17-2.68,1.08-3.98,1.13-1.84.06-3.68-.15-5.52-.12-1.45.02-2.58-.41-3.55-1.56-1.68-1.99-3.48-3.89-5.21-5.84-.82-.93-1.63-1.88-2.37-2.88-.76-1.03-.51-2.12.56-2.79.24-.15.5-.3.77-.35,3.45-.62,6.58-2.26,9.88-3.36,1.8-.6,2.75-.14,3.4,1.64.5,1.34,1.11,2.63,1.67,3.94,1.44,3.38,2.88,6.75,4.34,10.18Z"/>
  <path class="cls-1" d="M145.5,110.17c.24-2.52.31-5.07.75-7.55.6-3.38,2.13-6.43,3.94-9.3,3.85-6.12,9.3-10.25,15.73-13.09,6.73-2.98,13.8-4.05,21.07-3.49,6.78.52,13.16,2.51,18.66,6.73,6.77,5.21,11.11,12.2,12.97,20.65,2.22,10.13.57,19.65-5.43,28.11-4.59,6.48-10.96,10.47-18.42,12.64-4.84,1.41-9.77,2.03-14.81,1.48-2.67-.29-5.39-.29-8.03-.75-6.02-1.05-11.3-3.7-15.57-8.28-1.75-1.87-3.51-3.73-5.28-5.59-2.87-3.02-4.29-6.7-4.66-10.86-.32-3.55-.61-7.11-.92-10.71ZM173.04,132.72c1.66,0,3.45-.58,5.01-1.82,3.48-2.77,4.02-8.07,1.16-11.16-3.05-3.29-8.35-3.65-11.77-.78-3.65,3.06-4.01,8.13-.67,11.5,1.72,1.74,3.75,2.14,6.28,2.26ZM172.94,86.36c-3.72.24-6.66,2.33-7.82,5.72-1.3,3.79.32,7.56,3.91,9.13,1.75.76,3.57.96,5.44.79,3.28-.31,5.86-2.82,6.52-6.26.62-3.27-.86-6.8-3.71-8.19-1.33-.65-2.88-.8-4.34-1.18ZM197.08,117.3c3.55-.05,6.3-1.93,7.46-5.19,1.15-3.22.2-6.7-2.42-8.87-3.23-2.68-9.04-1.96-11.73,1.46-3.51,4.45-1.76,10.36,3.57,11.98,1.01.31,2.08.42,3.12.63Z"/>
  <path class="cls-3" d="M173.04,132.72c-2.52-.11-4.56-.52-6.28-2.26-3.34-3.37-2.98-8.44.67-11.5,3.42-2.87,8.73-2.51,11.77.78,2.86,3.09,2.32,8.38-1.16,11.16-1.56,1.24-3.35,1.81-5.01,1.82Z"/>
  <path class="cls-5" d="M172.94,86.36c1.45.38,3.01.53,4.34,1.18,2.85,1.39,4.33,4.92,3.71,8.19-.66,3.45-3.24,5.95-6.52,6.26-1.87.18-3.69-.02-5.44-.79-3.59-1.57-5.21-5.34-3.91-9.13,1.16-3.39,4.1-5.47,7.82-5.72Z"/>
  <path class="cls-3" d="M197.08,117.3c-1.04-.2-2.11-.32-3.12-.63-5.33-1.62-7.08-7.53-3.57-11.98,2.69-3.41,8.5-4.13,11.73-1.46,2.62,2.17,3.57,5.65,2.42,8.87-1.16,3.26-3.92,5.14-7.46,5.19Z"/>
</svg>