<?xml version="1.0"?>
<svg width="458.27" height="384.45" xmlns="http://www.w3.org/2000/svg" xmlns:svg="http://www.w3.org/2000/svg" data-name="Livello 1">
 <defs>
  <style>.cls-1 {
        fill: #b81e14;
      }

      .cls-1, .cls-2, .cls-3, .cls-4, .cls-5, .cls-6 {
        stroke-width: 0px;
      }

      .cls-2 {
        fill: #118237;
      }

      .cls-3 {
        fill: #fefcfb;
      }

      .cls-4 {
        fill: #bd8b4e;
      }

      .cls-5 {
        fill: #fefcfc;
      }

      .cls-6 {
        fill: #be8c4e;
      }</style>
 </defs>
 <g class="layer">
  <title>Layer 1</title>
  <path class="cls-4" d="m16.57,16.48c2.02,1.26 3.74,2.88 5.34,4.66c0.64,0.71 1.37,1.33 2.06,1.99c0,0 0,0 0,0c0.46,0.46 0.92,0.92 1.38,1.38c0.46,0.54 0.91,1.07 1.37,1.61c0.34,0.46 0.64,0.95 1.01,1.37c4,4.44 8.01,8.88 12.03,13.31c2.14,2.36 4.3,4.7 6.44,7.05c0.34,0.38 0.71,0.76 0.95,1.21c0.58,1.11 1.53,1.68 2.64,1.95c0.43,0.11 1.02,0.06 1.39,-0.18c0.81,-0.51 1.6,-1.09 2.25,-1.79c6.11,-6.52 12.21,-13.06 18.27,-19.64c3.08,-3.35 6.05,-6.82 9.08,-10.21c1.66,-1.86 3.85,-2.8 6.19,-3.24c0.74,-0.14 1.73,0.4 2.43,0.9c1.13,0.8 1.87,2 1.87,3.47c0,3.05 -0.14,6.11 -0.13,9.16c0.03,5.54 0.18,11.07 0.2,16.61c0.04,13.67 0.08,27.34 -0.02,41.01c-0.02,2.71 -0.02,5.41 0.05,8.11c0.06,2.58 -0.6,4.91 -3.26,6.01c-0.15,0.06 -0.28,0.18 -0.43,0.28c-4.92,-0.14 -9.85,-0.29 -14.77,-0.43c-0.1,-0.06 -0.19,-0.15 -0.29,-0.16c-2.23,-0.27 -2.73,-2 -2.81,-3.83c-0.14,-2.99 -0.05,-5.99 -0.09,-8.98c-0.03,-2.25 -0.12,-4.49 -0.13,-6.74c-0.03,-4.55 0.02,-9.1 -0.05,-13.65c-0.01,-0.75 -0.44,-1.5 -0.77,-2.52c-0.88,0.6 -1.63,0.97 -2.22,1.53c-1.99,1.86 -3.96,3.74 -5.87,5.68c-0.88,0.89 -1.57,1.96 -2.43,2.87c-1.76,1.86 -3.52,3.72 -5.38,5.46c-1.2,1.12 -3.01,1.19 -4.32,0.13c-1.84,-1.49 -3.59,-3.13 -5.29,-4.79c-1.21,-1.19 -2.28,-2.54 -3.43,-3.8c-1.26,-1.39 -2.51,-2.8 -3.8,-4.16c-0.97,-1.02 -1.91,-2.12 -3.33,-2.4c-0.94,0.48 -1.22,1.21 -1.17,2.17c0.08,1.61 0.17,3.22 0.16,4.84c-0.02,3.22 -0.14,6.44 -0.15,9.67c-0.02,3.98 0.02,7.95 0.04,11.93c0,0.69 0.07,1.38 0.09,2.07c0.06,1.8 -0.81,3.03 -2.31,3.86c-1.58,0.87 -3.2,1.32 -5.01,0.89c-0.59,-0.14 -1.23,-0.03 -1.85,-0.02c-1.85,0.04 -3.69,0.09 -5.54,0.14c-0.56,0.01 -1.12,-0.02 -1.67,0.05c-3.04,0.35 -5.45,-1.82 -5.45,-5.01c0,-7.56 0.02,-15.11 0.06,-22.67c0.03,-5.71 0.16,-11.42 0.13,-17.12c-0.03,-8.13 -0.17,-16.26 -0.25,-24.38c0,-0.46 0.01,-0.92 0.02,-1.38c0.02,-2.65 0.17,-5.3 0.02,-7.94c-0.13,-2.27 0.11,-4.34 1.39,-6.23c0.67,-0.25 1.33,-0.5 2,-0.75c0.23,-0.02 0.46,-0.04 0.68,-0.06c0.9,0.25 1.79,0.5 2.69,0.74l-0.01,-0.03z" id="svg_5"/>
  <path class="cls-4" d="m283.87,57.48c0.19,-3.8 0.15,-7.64 1.12,-11.34c1.01,-3.83 2.03,-7.68 4.28,-11.02c1.79,-2.65 3.43,-5.42 5.7,-7.7c0.32,-0.32 0.59,-0.71 0.95,-0.97c3.6,-2.55 7.21,-5.09 10.83,-7.62c0.18,-0.13 0.39,-0.24 0.6,-0.31c3.32,-1.05 6.62,-2.17 9.97,-3.08c1.5,-0.41 3.11,-0.49 4.67,-0.54c3.25,-0.11 6.51,-0.12 9.76,-0.12c0.6,0 1.22,0.15 1.81,0.34c4.51,1.42 9.01,2.86 13.51,4.3c0.43,0.14 0.86,0.28 1.25,0.5c4,2.28 7.65,5.07 10.8,8.47c1.46,1.58 2.74,3.35 4.06,5.07c0.41,0.53 0.67,1.19 0.97,1.81c0.25,0.52 0.39,1.09 0.69,1.58c2.19,3.65 3.16,7.75 3.97,11.85c0.94,4.76 0.94,9.6 0.71,14.47c-0.18,3.84 -1.21,7.48 -1.95,11.2c-0.14,0.73 -0.4,1.46 -0.75,2.11c-1.64,3.02 -3.29,6.04 -5.04,9c-0.63,1.07 -1.51,2 -2.38,2.89c-2.04,2.07 -4.13,4.08 -6.22,6.1c-0.4,0.39 -0.83,0.82 -1.32,1.04c-4.37,1.94 -8.54,4.39 -13.18,5.68c-1.5,0.42 -3.07,0.65 -4.62,0.83c-4.46,0.53 -8.93,0.97 -13.43,0.45c-0.44,-0.05 -0.91,-0.02 -1.33,-0.15c-5.25,-1.65 -10.63,-2.83 -15.47,-5.74c-2.67,-1.6 -5.22,-3.2 -7.43,-5.52c-3.09,-3.25 -5.56,-6.95 -7.97,-10.69c-0.94,-1.45 -1.27,-3.31 -1.99,-4.92c-1.98,-4.44 -2.7,-9.11 -2.56,-13.95c0.04,-1.33 0,-2.65 0,-3.98l-0.01,-0.04zm43.4,-21.45c-2.29,0.23 -4.64,0.18 -6.84,0.76c-4.91,1.3 -8.8,4.18 -11.38,8.77c-0.25,0.45 -0.49,0.93 -0.85,1.28c-1.02,1.02 -1.41,2.33 -1.72,3.69c-0.81,3.56 -1.03,7.14 -0.69,10.81c0.32,3.4 1.56,6.47 2.54,9.64c0.05,0.16 0.14,0.32 0.25,0.45c2.42,3.04 4.88,5.99 8.42,7.8c1.4,0.72 2.91,0.81 4.29,1.36c1.75,0.7 3.49,0.7 5.29,0.61c2.13,-0.11 4.22,-0.42 6.33,-0.77c2.31,-0.38 4.19,-1.57 6.15,-2.63c3.42,-1.84 4.96,-5.38 7,-8.45c0.15,-0.22 0.19,-0.54 0.24,-0.82c0.46,-2.72 0.94,-5.44 1.36,-8.17c0.15,-0.96 0.21,-1.95 0.2,-2.92c-0.03,-3.04 -0.84,-5.91 -1.87,-8.73c-1.72,-4.67 -4.6,-8.2 -9.15,-10.26c-3.07,-1.39 -6.1,-2.68 -9.55,-2.41l-0.02,-0.01z" id="svg_6"/>
  <path class="cls-4" d="m398.74,61.23c-1.07,1.73 -1.11,3.59 -1.12,5.43c-0.05,9.29 -0.09,18.59 -0.06,27.88c0,1.79 -0.43,3.43 -1.06,5.02c-0.52,1.3 -1.85,1.55 -3.03,1.84c-0.54,0.13 -1.12,0.09 -1.68,0.08c-3.48,-0.05 -6.95,-0.1 -10.43,-0.18c-0.84,-0.02 -1.69,-0.1 -2.5,-0.3c-2.08,-0.53 -3.02,-1.67 -3.1,-3.88c-0.11,-3.11 -0.15,-6.23 -0.16,-9.35c-0.02,-5.65 -0.01,-11.31 0.04,-16.96c0.02,-2.47 0.18,-4.95 0.27,-7.42c0.01,-0.29 0,-0.58 0,-0.87c-0.04,-14.02 -0.09,-28.04 -0.11,-42.07c0,-2.36 1.4,-4.29 3.62,-4.44c1.38,-0.09 2.87,0.45 4.21,0.98c1.9,0.74 3.49,2.05 4.93,3.54c7.02,7.31 14.07,14.61 21.1,21.91c0.47,0.49 0.91,1.05 1.44,1.45c4.01,3.02 7.25,6.89 10.78,10.43c0.74,0.74 1.49,1.37 2.79,1.55c0.19,-0.87 0.53,-1.74 0.55,-2.61c0.13,-6.87 0.29,-13.74 0.23,-20.6c-0.02,-2.54 0,-5.06 0.08,-7.59c0.04,-1.31 -0.21,-2.64 -0.22,-3.95c-0.02,-2.76 2.34,-5.35 5.31,-5.24c3.93,0.16 7.86,0.04 11.8,-0.05c2.61,-0.06 4.71,1.98 4.78,4.52c0.16,5.48 0.29,10.96 0.3,16.45c0,4.55 -0.43,9.12 -0.25,13.66c0.62,15.29 -0.02,30.58 0.13,45.86c0,0.68 -0.02,1.39 -0.18,2.05c-0.42,1.76 -1.58,2.76 -3.31,2.91c-1.56,0.14 -3.12,0.06 -4.57,-0.76c-2.04,-1.15 -3.74,-2.69 -5.35,-4.42c-3.56,-3.85 -7.22,-7.59 -10.87,-11.36c-2.61,-2.7 -5.25,-5.39 -7.91,-8.03c-0.88,-0.88 -1.89,-1.62 -2.84,-2.42c-0.3,-0.26 -0.62,-0.49 -0.9,-0.77c-2.72,-2.75 -5.45,-5.49 -8.15,-8.26c-0.87,-0.89 -1.71,-1.83 -2.48,-2.81c-0.53,-0.66 -1.11,-1.12 -2.07,-1.2l-0.01,-0.02z" id="svg_7"/>
  <path class="cls-4" d="m228.4,61.24c-0.26,1.04 -0.57,2.06 -0.75,3.12c-0.13,0.79 -0.1,1.61 -0.11,2.42c-0.06,9.29 -0.14,18.59 -0.14,27.88c0,1.73 -0.42,3.32 -1.01,4.86c-0.51,1.33 -1.84,1.55 -3.01,1.87c-0.53,0.14 -1.12,0.09 -1.68,0.08c-3.53,-0.05 -7.07,-0.09 -10.6,-0.19c-0.89,-0.02 -1.78,-0.21 -2.66,-0.38c-1.99,-0.37 -2.64,-1.75 -2.75,-3.76c-0.16,-2.82 -0.24,-5.65 -0.25,-8.48c-0.03,-7.44 -0.2,-14.89 0.02,-22.32c0.44,-15.11 0.08,-30.23 0.23,-45.34c0,-0.68 0,-1.41 0.22,-2.04c0.75,-2.28 2.68,-3.27 5.01,-2.79c2.92,0.59 5.32,2.09 7.38,4.23c7.23,7.51 14.44,15.04 21.72,22.5c2.02,2.07 4.29,3.89 6.37,5.9c1.88,1.82 3.64,3.78 5.51,5.6c0.67,0.65 1.52,1.1 2.38,1.71c0.65,-1.17 0.92,-2.19 0.92,-3.3c0,-7.68 0,-15.35 0.02,-23.03c0,-0.46 -0.02,-0.93 0.04,-1.38c0.29,-2.42 0.07,-4.83 -0.02,-7.24c-0.11,-2.74 2.35,-5.42 5.23,-5.3c3.92,0.17 7.87,0.06 11.8,-0.05c2.71,-0.08 4.84,2.17 4.9,4.81c0.12,5.14 0.3,10.27 0.3,15.41c0,4.84 -0.46,9.7 -0.26,14.52c0.65,15.29 -0.16,30.58 0.03,45.86c0,0.63 0.06,1.31 -0.12,1.89c-0.45,1.39 -1.1,2.57 -2.79,2.84c-1.84,0.29 -3.55,0.2 -5.2,-0.7c-2.01,-1.09 -3.64,-2.64 -5.22,-4.31c-5.36,-5.67 -10.8,-11.26 -16.25,-16.85c-1.82,-1.87 -3.56,-3.83 -5.75,-5.31c-0.96,-0.65 -1.63,-1.73 -2.48,-2.58c-2.1,-2.09 -4.23,-4.14 -6.32,-6.24c-0.84,-0.84 -1.56,-1.81 -2.4,-2.66c-0.53,-0.54 -1.17,-0.97 -1.76,-1.45l-0.53,0.2l-0.02,0z" id="svg_8"/>
  <path class="cls-4" d="m95.39,100.54c-1.04,-2.32 -0.56,-4.37 0.4,-6.44c0.9,-1.91 1.64,-3.9 2.45,-5.86c0.07,-0.16 0.12,-0.34 0.23,-0.46c1.37,-1.48 1.76,-3.44 2.5,-5.24c0.39,-0.95 0.87,-1.87 1.31,-2.8c0.63,-1.35 1.24,-2.71 1.87,-4.06c0.24,-0.52 0.51,-1.02 0.78,-1.52c0.21,-0.4 0.54,-0.77 0.65,-1.2c0.9,-3.56 2.72,-6.7 4.21,-9.98c2.58,-5.7 5.35,-11.31 7.84,-17.05c1.14,-2.61 2.57,-5.12 3.23,-7.94c0.05,-0.22 0.14,-0.45 0.27,-0.63c2.43,-3.59 3.56,-7.81 5.38,-11.7c1.02,-2.17 1.99,-4.37 3.05,-6.52c1.29,-2.61 3.71,-3.94 6.27,-4.08c2.63,-0.15 5,1.23 6.32,3.84c0.95,1.89 1.79,3.84 2.66,5.77c2.13,4.7 4.26,9.39 6.36,14.1c1.47,3.3 2.86,6.64 4.3,9.95c0.23,0.52 0.51,1.03 0.79,1.52c1.69,2.99 3.24,6.04 4.22,9.37c0.21,0.71 0.53,1.41 0.94,2.02c1.84,2.74 2.77,5.91 4.11,8.89c1.22,2.72 2.51,5.41 3.76,8.11c0.26,0.57 0.51,1.15 0.77,1.73c1.19,2.67 2.42,5.32 3.56,8.01c1.1,2.58 2.16,5.19 3.14,7.82c0.58,1.58 0.49,2.34 -0.05,4.32c-2.35,0.66 -4.79,0.81 -7.26,0.76c-1.51,-0.03 -3.03,-0.15 -4.52,0.02c-3.25,0.36 -6.14,-0.39 -8.63,-2.56c-0.48,-0.42 -0.96,-1.03 -1.11,-1.63c-0.76,-3.12 -2.71,-5.11 -5.49,-6.33c-0.58,-0.25 -1.28,-0.28 -1.92,-0.3c-0.61,-0.02 -1.23,0.16 -1.84,0.16c-3.37,-0.01 -6.73,-0.03 -10.1,-0.09c-1.62,-0.03 -3.24,-0.2 -4.86,-0.24c-1.01,-0.03 -2.02,0.08 -3.02,0.09c-1.39,0.02 -2.78,0.03 -4.18,0c-1.47,-0.04 -2.51,0.89 -3.56,1.72c-1.3,1.03 -2.24,2.38 -2.98,3.91c-0.51,1.06 -1.27,2.02 -2.02,2.93c-1.24,1.52 -2.99,2.02 -4.81,2.08c-2.69,0.09 -5.38,0.01 -8.07,0.02c-0.9,0 -1.8,0.04 -2.69,0.11c-2.12,0.17 -2.12,0.18 -4.28,-0.64l0.02,0.02zm40.55,-47c-0.97,0.44 -1.43,1.18 -1.79,2.07c-1.29,3.13 -2.63,6.24 -3.96,9.36c-0.29,0.69 -0.68,1.35 -0.86,2.06c-0.62,2.5 -0.25,3.78 2.81,3.68c0.17,0 0.33,-0.06 0.5,-0.06c0.5,-0.02 1.01,-0.05 1.51,-0.02c1.9,0.1 3.8,0.22 5.7,0.32c2.86,0.14 3.76,-2.34 2.84,-4.38c-1.62,-3.61 -3.1,-7.29 -4.58,-10.97c-0.42,-1.04 -1.03,-1.75 -2.17,-2.05l0,-0.01z" id="svg_9"/>
  <path class="cls-4" d="m347.9,137.52c1.25,-1.22 2.86,-0.93 4.5,-0.87c3.92,0.14 7.85,0.19 11.78,0.17c1.95,-0.01 3.9,-0.26 5.84,-0.38c0.5,-0.03 1.03,-0.08 1.51,0.04c2.45,0.62 4.92,0.21 7.38,0.16c2.07,-0.04 4.13,-0.2 6.2,-0.2c2.24,0 4.49,0.21 6.73,0.19c1.49,-0.01 3.53,1.87 3.55,3.78c0.02,2.65 -0.04,5.31 -0.14,7.96c-0.06,1.65 -1.88,3.78 -3.81,3.62c-2.83,-0.24 -5.69,-0.16 -8.54,-0.1c-1.9,0.04 -2.71,0.79 -3.16,2.68c-0.2,0.83 -0.38,1.7 -0.38,2.55c-0.06,8.07 -0.09,16.15 -0.1,24.22c0,5.65 0.19,11.3 0,16.94c-0.14,4.25 -1.01,4.9 -5.06,5.23c-2.07,0.17 -4.16,0.14 -6.23,0.07c-0.99,-0.03 -2,-0.24 -2.95,-0.54c-1.76,-0.55 -2.45,-1.86 -2.32,-3.81c0.1,-1.67 0.11,-3.35 0.11,-5.02c0,-7.67 -0.04,-15.35 -0.05,-23.02c0,-5.13 0,-10.27 0.03,-15.4c0,-2.09 -1.45,-3.78 -3.5,-3.83c-2.97,-0.07 -5.95,-0.05 -8.93,-0.07c-0.11,0 -0.23,0 -0.34,0.02c-1.15,0.18 -2.05,-1.22 -3.47,-0.26c-0.91,0.62 -2.38,0.39 -3.6,0.45c-0.66,0.04 -1.34,-0.14 -2.01,-0.16c-1.45,-0.05 -2.91,-0.13 -4.36,-0.07c-1.82,0.07 -2.66,0.79 -3.08,2.55c-0.21,0.89 -0.38,1.81 -0.39,2.72c-0.09,7.9 -0.18,15.8 -0.19,23.69c0,5.52 0.17,11.05 0.13,16.57c0,1.41 -0.5,2.81 -0.77,4.22c-0.12,0.63 -0.53,1.02 -1.12,1.15c-1.14,0.26 -2.28,0.63 -3.44,0.7c-2.07,0.13 -4.16,0.13 -6.23,0.08c-0.88,-0.02 -1.78,-0.21 -2.62,-0.48c-1.88,-0.6 -2.57,-1.88 -2.51,-3.9c0.08,-2.59 0,-5.18 0.01,-7.77c0,-2.25 0.05,-4.5 0.05,-6.75c0,-4.38 0,-8.77 0,-13.15c0,-3.11 0.04,-6.22 0.06,-9.34c0.02,-2.24 0.08,-4.49 0.02,-6.73c-0.05,-1.64 -1.31,-3.39 -3.34,-3.47c-2.92,-0.12 -5.86,-0.29 -8.75,-0.04c-2.17,0.18 -3.91,-1.39 -3.93,-3.66c-0.02,-2.42 0.06,-4.85 0,-7.27c-0.02,-0.97 0.18,-1.8 0.64,-2.63c0.7,-1.28 1.74,-1.87 3.16,-1.83c4.49,0.11 8.98,0.25 13.46,0.27c1.94,0 3.88,-0.25 5.83,-0.37c0.61,-0.04 1.26,-0.11 1.84,0.04c1.73,0.45 3.46,0.3 5.2,0.24c2.68,-0.1 5.37,-0.27 8.05,-0.29c2.41,-0.02 4.82,0.09 7.23,0.25c0.63,0.04 1.23,0.49 2,0.82l0.01,0.03z" id="svg_10"/>
  <path class="cls-4" d="m199.89,201.51c-0.56,-1.6 -0.57,-3.26 -0.57,-4.93c0,-6.4 -0.05,-12.81 -0.06,-19.21c-0.03,-11.71 -0.03,-23.42 -0.07,-35.13c0,-1.11 0.16,-2.14 0.56,-3.19c0.54,-1.44 1.6,-2.11 2.94,-2.21c2.79,-0.21 5.56,-0.73 8.39,-0.08c0.99,0.23 2.1,-0.08 3.16,-0.15c0.83,-0.06 1.7,-0.31 2.5,-0.15c2.68,0.54 5.39,0.43 8.06,0.25c4.65,-0.31 9.05,0.63 13.33,2.3c1.99,0.78 3.9,1.78 5.28,3.57c0.17,0.22 0.39,0.41 0.58,0.62c4.4,4.82 4.32,3.91 6.33,11.13c0.97,3.51 1,7.13 0.47,10.78c-0.56,3.79 -2.59,6.84 -4.33,10.04c-0.37,0.67 -1.09,1.14 -1.65,1.7c-1.3,1.31 -2.1,2.85 -1.89,4.78c0.05,0.43 0.22,0.89 0.44,1.26c2.5,4.1 5.03,8.18 7.53,12.29c0.89,1.46 1.74,2.94 2.53,4.46c0.96,1.85 0.1,3.62 -1.93,3.94c-0.94,0.15 -1.9,0.14 -2.86,0.14c-2.64,-0.02 -5.27,-0.08 -7.91,-0.1c-2.19,-0.02 -4.26,-0.4 -5.89,-2.03c-0.59,-0.59 -1.11,-1.3 -1.54,-2.03c-1.81,-3.11 -3.57,-6.25 -5.33,-9.39c-0.47,-0.85 -0.88,-1.74 -1.31,-2.61c-0.98,-2 -2.48,-3.22 -4.73,-3.33c-0.61,-0.03 -1.26,-0.05 -1.83,-0.25c-1.81,-0.64 -3.9,0.72 -4.08,3.17c-0.17,2.29 0,4.61 -0.06,6.91c-0.06,2.52 0.21,5.06 -0.57,7.53c-0.23,0.73 -0.62,1.08 -1.33,1.37c-2.22,0.91 -4.54,0.55 -6.82,0.69c-1.23,0.07 -2.46,0.03 -3.69,-0.04c-0.66,-0.04 -1.3,-0.25 -1.96,-0.38c-0.64,-0.5 -1.58,-0.69 -1.7,-1.73l0.01,0.01zm16.03,-41.29s0.05,0 0.07,0c0,1.67 -0.05,3.34 0.01,5.01c0.08,2.05 1.59,3.31 3.59,3.21c1.17,-0.06 2.35,-0.06 3.52,0.02c2.03,0.14 4.01,-0.05 5.99,-0.59c2.51,-0.69 4.1,-2.35 4.86,-4.8c0.68,-2.2 0.66,-4.51 -0.33,-6.58c-0.99,-2.06 -2.25,-3.96 -4.92,-4.11c-2.61,-0.15 -5.18,-0.9 -7.83,-0.34c-0.37,0.08 -0.78,0 -1.17,-0.01c-2.54,-0.04 -3.65,1.13 -3.77,3.55c-0.08,1.55 -0.01,3.1 -0.01,4.66l-0.01,-0.02z" id="svg_11"/>
  <path class="cls-4" d="m34.59,135.55c2.01,0.15 4.03,0.29 6.04,0.47c0.44,0.04 0.87,0.19 1.3,0.33c0.96,0.32 1.9,0.72 2.87,0.99c3.45,0.95 6.58,2.56 9.55,4.58c2.15,1.46 3.95,3.19 5.29,5.45c0.46,0.78 1.08,1.47 1.61,2.22c1.63,2.33 2.54,4.99 3.26,7.72c0.51,1.94 -0.3,3.35 -2.22,3.63c-1.32,0.19 -2.67,0.13 -4.01,0.13c-1.79,0 -3.6,-0.16 -5.38,-0.03c-1.61,0.12 -2.88,-0.46 -3.94,-1.54c-1.39,-1.42 -2.7,-2.93 -3.97,-4.46c-1.89,-2.26 -4.47,-2.98 -7.14,-3.48c-3.16,-0.6 -6.29,-0.01 -9.36,0.6c-2.3,0.46 -4.1,2.09 -5.7,3.83c-3.23,3.53 -4.64,7.81 -4.78,12.58c-0.04,1.5 -0.09,3.01 0.04,4.5c0.31,3.78 1.89,7.09 4,10.12c0.67,0.96 1.61,1.83 2.59,2.45c3.23,2.04 6.59,3.76 10.56,3.42c0.62,-0.05 1.23,-0.08 1.85,-0.07c1.27,0.02 2.42,-0.31 3.52,-0.99c1.06,-0.65 2.37,-0.96 3.25,-1.78c1.44,-1.33 2.77,-2.86 3.89,-4.49c0.94,-1.36 1.94,-2.53 3.43,-3.18c0.45,-0.2 0.96,-0.33 1.44,-0.34c3.14,-0.06 6.28,-0.08 9.41,-0.11c1.75,-0.02 3.37,1.81 2.84,3.43c-0.98,3 -1.69,6.1 -3.36,8.83c-3.22,5.29 -7.53,9.15 -13.19,11.58c-5.5,2.36 -11.15,2.66 -16.97,2.43c-5.78,-0.22 -10.98,-2.22 -15.86,-5.17c-1.96,-1.19 -3.63,-2.88 -5.38,-4.4c-3.83,-3.31 -5.77,-7.91 -7.62,-12.47c-1.2,-2.97 -1.53,-6.24 -1.73,-9.48c-0.3,-4.89 0.25,-9.7 1.57,-14.36c1.33,-4.71 3.82,-8.84 7.16,-12.37c1.05,-1.12 2.21,-2.14 3.36,-3.14c1.5,-1.31 3.17,-2.33 4.89,-3.33c4.17,-2.42 8.76,-3.14 13.34,-3.97c1.14,-0.21 2.35,-0.03 3.53,-0.03c0,-0.04 0,-0.07 0,-0.11l0.02,0.01z" id="svg_12"/>
  <path class="cls-4" d="m287.06,203.73c-2.52,0 -5.07,0.22 -7.56,-0.05c-5.5,-0.59 -10.98,0.2 -16.46,-0.1c-0.56,-0.03 -1.12,-0.05 -1.66,-0.19c-1.88,-0.46 -3.06,-1.61 -3.14,-3.68c-0.07,-1.72 -0.08,-3.45 -0.11,-5.18c-0.03,-1.67 -0.08,-3.33 -0.08,-5c0,-0.75 0.14,-1.49 0.14,-2.24c0.04,-5.14 0.08,-10.27 0.06,-15.41c0,-2.53 -0.21,-5.06 -0.2,-7.6c0,-4.78 0.12,-9.56 0.13,-14.34c0,-3.05 -0.02,-6.1 -0.17,-9.14c-0.12,-2.41 1.28,-4.06 3.68,-4.11c2.12,-0.04 4.25,-0.27 6.37,-0.26c3.64,0 7.28,0.18 10.92,0.2c3.65,0.02 7.3,-0.13 10.95,-0.11c2.01,0.01 4.03,0.17 6.03,0.4c1.81,0.2 2.77,1.34 2.84,3.24c0.1,2.71 0.14,5.42 0.17,8.13c0.02,1.82 -1.65,3.48 -3.63,3.6c-1.12,0.07 -2.25,0.04 -3.37,0.03c-3.2,-0.03 -6.4,-0.11 -9.61,-0.09c-1.62,0.01 -3.24,0.14 -4.85,0.32c-1.86,0.21 -2.81,1.27 -2.85,3.19c-0.02,1.14 0.13,2.29 0.27,3.43c0.26,2.14 1.45,2.56 3.31,2.57c4.83,0.01 9.65,-0.03 14.48,-0.03c0.6,0 1.22,0.1 1.79,0.29c1.91,0.62 2.49,2.29 2.54,4.06c0.07,2.59 -0.04,5.2 -0.23,7.78c-0.15,2.03 -0.71,3 -3.43,3.05c-3.2,0.05 -6.4,0.13 -9.6,0.15c-1.79,0 -3.59,-0.06 -5.38,-0.15c-2.13,-0.11 -3.66,1.63 -3.65,3.83c0,1.5 0.04,3 0,4.5c-0.07,2.28 1.76,3.48 3.58,3.4c1.28,-0.06 2.57,0.08 3.86,0.08c4.71,0.01 9.42,0 14.13,0c2.02,0 3.46,1.49 3.49,3.61c0.03,2.48 -0.06,4.97 0.02,7.44c0.08,2.58 -1.5,4.24 -4.01,4.21c-2.92,-0.03 -5.84,0 -8.76,0c0,0.05 0,0.1 0,0.15l-0.01,0.02z" id="svg_13"/>
  <path class="cls-4" d="m116.11,203.73c-2.52,0 -5.07,0.22 -7.56,-0.04c-5.44,-0.57 -10.87,0.19 -16.3,-0.1c-0.61,-0.03 -1.23,-0.06 -1.83,-0.19c-1.91,-0.44 -3.04,-1.64 -3.12,-3.69c-0.07,-1.72 -0.08,-3.45 -0.11,-5.18c-0.03,-1.67 -0.09,-3.33 -0.08,-5c0,-0.98 0.16,-1.95 0.16,-2.93c0.04,-4.73 0.08,-9.47 0.06,-14.2c-0.01,-2.88 -0.21,-5.76 -0.21,-8.63c0,-4.61 0.11,-9.21 0.12,-13.82c0,-3.05 -0.03,-6.1 -0.17,-9.14c-0.11,-2.39 1.28,-4.05 3.7,-4.08c2.12,-0.03 4.25,-0.27 6.37,-0.27c3.64,0 7.28,0.19 10.92,0.2c3.65,0.01 7.3,-0.14 10.95,-0.11c2.01,0.01 4.03,0.17 6.03,0.4c1.8,0.21 2.75,1.35 2.82,3.26c0.1,2.71 0.13,5.42 0.18,8.13c0.03,1.82 -1.75,3.49 -3.66,3.58c-1.51,0.07 -3.03,0.03 -4.55,0.02c-2.7,-0.02 -5.39,-0.1 -8.09,-0.07c-1.73,0.02 -3.47,0.13 -5.19,0.32c-1.87,0.21 -2.79,1.27 -2.83,3.21c-0.02,1.09 0.11,2.18 0.25,3.26c0.28,2.21 1.18,2.7 3.36,2.71c4.83,0.03 9.65,-0.02 14.48,-0.02c0.6,0 1.22,0.11 1.79,0.29c1.92,0.62 2.47,2.31 2.52,4.07c0.07,2.59 -0.07,5.19 -0.24,7.78c-0.14,2.16 -1.18,3.02 -3.28,3.04c-3.31,0.03 -6.62,0.13 -9.94,0.15c-1.79,0.01 -3.59,-0.09 -5.38,-0.12c-2.17,-0.04 -3.35,1.63 -3.44,3.47c-0.09,1.73 -0.09,3.47 0,5.19c0.11,1.9 1.17,2.87 3.24,3.01c2.12,0.14 4.25,0.11 6.38,0.14c0.67,0 1.34,-0.04 2.02,-0.06c2.13,-0.03 4.25,-0.07 6.38,-0.08c1.12,0 2.24,0.1 3.36,0.1c2.1,0 3.64,1.44 3.64,3.63c0,2.6 0.03,5.19 0,7.79c-0.03,2.39 -1.43,3.77 -3.67,3.82c-3.03,0.07 -6.07,0.02 -9.1,0.02c0,0.05 0,0.1 0,0.15l0.02,-0.01z" id="svg_14"/>
  <path class="cls-4" d="m452.4,203.61c-2.11,0 -4.07,-0.04 -6.03,0.01c-2.14,0.05 -3.94,-0.8 -5.55,-2.14c-0.4,-0.33 -0.65,-0.91 -0.85,-1.42c-0.51,-1.29 -0.97,-2.56 -2.14,-3.43c-1.34,-0.99 -2.59,-1.7 -4.44,-1.49c-2.61,0.29 -5.27,0.07 -7.91,0.02c-1.51,-0.03 -3.02,-0.17 -4.53,-0.22c-0.78,-0.02 -1.57,0.06 -2.35,0.12c-0.67,0.05 -1.38,0.28 -2.01,0.14c-2.86,-0.62 -4.31,1.31 -5.74,3.26c-0.33,0.46 -0.56,1 -0.81,1.52c-1.02,2.08 -2.68,3.24 -4.93,3.36c-2.01,0.11 -4.04,0.06 -6.06,0.09c-1.06,0.02 -2.13,0.04 -3.19,0.09c-2.98,0.16 -3.55,-1.25 -2.97,-4c0.13,-0.61 0.44,-1.18 0.69,-1.76c1.38,-3.13 2.75,-6.28 4.18,-9.39c0.98,-2.13 2.08,-4.21 3.05,-6.34c0.57,-1.25 0.93,-2.59 1.49,-3.84c2.7,-5.9 5.46,-11.77 8.14,-17.67c0.99,-2.18 1.75,-4.48 2.74,-6.67c1.72,-3.81 3.54,-7.57 5.3,-11.36c0.29,-0.62 0.56,-1.26 0.8,-1.9c0.82,-2.25 2.26,-3.76 4.58,-4.41c1.75,-0.49 3.22,0.08 4.53,1.1c0.69,0.53 1.25,1.35 1.64,2.16c1.27,2.69 2.41,5.44 3.64,8.14c1.5,3.29 3.04,6.56 4.56,9.84c1.76,3.79 3.56,7.56 5.27,11.38c1.75,3.92 3.37,7.9 5.12,11.82c1.96,4.4 4.04,8.74 6.01,13.13c0.84,1.88 1.55,3.83 2.29,5.76c0.14,0.37 0.26,0.77 0.29,1.17c0.18,1.91 -0.12,2.31 -1.97,2.58c-1,0.15 -2,0.24 -2.86,0.33l0.02,0.02zm-27.59,-37.49c-0.34,0.39 -0.82,0.76 -1.03,1.24c-1.38,3.15 -2.77,6.3 -4.03,9.5c-0.68,1.73 0.14,2.76 1.98,2.77c0.73,0 1.45,0 2.18,0c1.45,0.03 2.91,0.16 4.35,0.08c2,-0.11 2.76,-1.42 2,-3.32c-1.16,-2.87 -2.39,-5.71 -3.55,-8.58c-0.32,-0.8 -0.75,-1.4 -1.88,-1.7l-0.02,0.01z" id="svg_15"/>
  <path class="cls-4" d="m167.77,136.83c3.54,-0.09 7.07,-0.22 10.61,-0.25c2.46,-0.03 4.92,0.08 7.38,0.11c1.74,0.02 3.48,0.02 5.22,0.04c1.73,0.01 2.5,0.57 3.2,2.22c0.46,1.08 0.64,2.15 0.56,3.35c-0.11,1.78 -0.14,3.59 0.06,5.35c0.26,2.37 -1.44,4.41 -4.03,4.33c-5.1,-0.16 -10.21,-0.14 -15.32,-0.17c-2.91,-0.02 -4.41,1.69 -4.29,4.63c0.08,1.95 0,3.91 -0.1,5.87c-0.13,2.49 1.54,4.05 4.15,4.26c4.16,0.32 8.29,-0.2 12.44,0.04c0.67,0.04 1.34,0.14 1.99,0.28c1.55,0.33 2.26,1.48 2.34,2.97c0.13,2.48 0.2,4.96 0.11,7.44c-0.04,1.06 -0.36,2.19 -0.85,3.13c-0.52,1.02 -1.63,1.35 -2.73,1.36c-2.46,0.04 -4.93,0 -7.4,0.03c-0.89,0 -1.78,0.12 -2.67,0.14c-0.5,0.01 -1,-0.06 -1.5,-0.08c-0.84,-0.03 -1.69,-0.15 -2.51,-0.05c-2.14,0.26 -3.16,1.47 -3.17,3.7c-0.01,2.02 0.02,4.04 0.03,6.06c0.01,2.47 0.02,4.95 0.04,7.42c0.02,2.46 -1.23,4.06 -3.59,4.4c-3.36,0.47 -6.74,0.36 -10.09,0.04c-2.04,-0.19 -3.51,-1.31 -3.51,-4.02c0,-8.94 -0.05,-17.89 -0.04,-26.83c0,-2.82 0.21,-5.64 0.22,-8.46c0,-3.62 -0.13,-7.25 -0.13,-10.87c0,-1.84 0.18,-3.69 0.21,-5.53c0.02,-1.09 -0.15,-2.19 -0.13,-3.28c0.03,-1.72 0.05,-3.46 0.28,-5.16c0.2,-1.56 1.46,-2.53 3.11,-2.55c3.37,-0.04 6.74,-0.01 10.1,-0.01l0,0.1l0.01,-0.01z" id="svg_16"/>
  <path class="cls-4" d="m74.5,160.92c-0.95,0 -1.91,0.05 -2.86,-0.01c-1.31,-0.09 -1.87,-0.96 -1.49,-2.23c0.34,-1.15 0.68,-2.3 1,-3.46c0.31,-1.15 0.06,-1.97 -1.01,-2.39c-2.7,-1.04 -3.95,-3.23 -4.73,-5.88c-0.88,-2.98 0.77,-7.5 3.35,-9.14c3.02,-1.91 6.24,-2.29 9.52,-0.98c3.99,1.6 6.13,5.53 5.21,9.68c-0.57,2.57 -1.38,5.07 -2.43,7.5c-0.65,1.51 -0.95,3.19 -1.41,4.8c-0.42,1.47 -1.3,2.16 -2.8,2.18c-0.79,0.01 -1.57,0 -2.36,0c0,-0.02 0,-0.05 0,-0.07l0.01,0z" id="svg_18"/>
  <path class="cls-4" d="m115.38,127.5c-1.28,1.17 -2.68,1.08 -3.98,1.13c-1.84,0.06 -3.68,-0.15 -5.52,-0.12c-1.45,0.02 -2.58,-0.41 -3.55,-1.56c-1.68,-1.99 -3.48,-3.89 -5.21,-5.84c-0.82,-0.93 -1.63,-1.88 -2.37,-2.88c-0.76,-1.03 -0.51,-2.12 0.56,-2.79c0.24,-0.15 0.5,-0.3 0.77,-0.35c3.45,-0.62 6.58,-2.26 9.88,-3.36c1.8,-0.6 2.75,-0.14 3.4,1.64c0.5,1.34 1.11,2.63 1.67,3.94c1.44,3.38 2.88,6.75 4.34,10.18l0.01,0.01z" id="svg_19"/>
 </g>
</svg>